  0
SECTION
  2
HEADER
  9
$ACADVER
  1
AC1014
  9
$HANDSEED
  5
FFFF
  9
$MEASUREMENT
 70
     1
  0
ENDSEC
  0
SECTION
  2
TABLES
  0
TABLE
  2
VPORT
  5
8
330
0
100
AcDbSymbolTable
 70
     4
  0
VPORT
  5
2E
330
8
100
AcDbSymbolTableRecord
100
AcDbViewportTableRecord
  2
*ACTIVE
 70
     0
 10
0.0
 20
0.0
 11
1.0
 21
1.0
 12
210.0
 22
148.5
 13
0.0
 23
0.0
 14
10.0
 24
10.0
 15
10.0
 25
10.0
 16
0.0
 26
0.0
 36
1.0
 17
0.0
 27
0.0
 37
0.0
 40
341.0
 41
1.24
 42
50.0
 43
0.0
 44
0.0
 50
0.0
 51
0.0
 71
     0
 72
   100
 73
     1
 74
     3
 75
     0
 76
     0
 77
     0
 78
     0
  0
ENDTAB
  0
TABLE
  2
LTYPE
  5
5
330
0
100
AcDbSymbolTable
 70
     1
  0
LTYPE
  5
14
330
5
100
AcDbSymbolTableRecord
100
AcDbLinetypeTableRecord
  2
BYBLOCK
 70
     0
  3

 72
    65
 73
     0
 40
0.0
  0
LTYPE
  5
15
330
5
100
AcDbSymbolTableRecord
100
AcDbLinetypeTableRecord
  2
BYLAYER
 70
     0
  3

 72
    65
 73
     0
 40
0.0
  0
LTYPE
  5
16
330
5
100
AcDbSymbolTableRecord
100
AcDbLinetypeTableRecord
  2
CONTINUOUS
 70
     0
  3
Solid line
 72
    65
 73
     0
 40
0.0
  0
ENDTAB
  0
TABLE
  2
LAYER
  5
2
100
AcDbSymbolTable
 70
2
  0
LAYER
  5
50
100
AcDbSymbolTableRecord
100
AcDbLayerTableRecord
  2
0
 70
0
  6
CONTINUOUS
  0
LAYER
  5
51
100
AcDbSymbolTableRecord
100
AcDbLayerTableRecord
  2
Page_1
 70
0
  6
CONTINUOUS
  0
ENDTAB
  0
TABLE
  2
STYLE
  5
3
330
0
100
AcDbSymbolTable
 70
     1
  0
STYLE
  5
11
330
3
100
AcDbSymbolTableRecord
100
AcDbTextStyleTableRecord
  2
STANDARD
 70
     0
 40
0.0
 41
1.0
 50
0.0
 71
     0
 42
2.5
  3
txt
  4

  0
ENDTAB
  0
TABLE
  2
VIEW
  5
6
330
0
100
AcDbSymbolTable
 70
     0
  0
ENDTAB
  0
TABLE
  2
UCS
  5
7
330
0
100
AcDbSymbolTable
 70
     0
  0
ENDTAB
  0
TABLE
  2
APPID
  5
9
330
0
100
AcDbSymbolTable
 70
     2
  0
APPID
  5
12
330
9
100
AcDbSymbolTableRecord
100
AcDbRegAppTableRecord
  2
ACAD
 70
     0
  0
ENDTAB
  0
TABLE
  2
DIMSTYLE
  5
A
330
0
100
AcDbSymbolTable
 70
     1
  0
DIMSTYLE
105
27
330
A
100
AcDbSymbolTableRecord
100
AcDbDimStyleTableRecord
  2
ISO-25
 70
     0
  3

  4

  5

  6

  7

 40
1.0
 41
2.5
 42
0.625
 43
3.75
 44
1.25
 45
0.0
 46
0.0
 47
0.0
 48
0.0
140
2.5
141
2.5
142
0.0
143
0.03937007874016
144
1.0
145
0.0
146
1.0
147
0.625
 71
     0
 72
     0
 73
     0
 74
     0
 75
     0
 76
     0
 77
     1
 78
     8
170
     0
171
     3
172
     1
173
     0
174
     0
175
     0
176
     0
177
     0
178
     0
270
     2
271
     2
272
     2
273
     2
274
     3
340
11
275
     0
280
     0
281
     0
282
     0
283
     0
284
     8
285
     0
286
     0
287
     3
288
     0
  0
ENDTAB
  0
TABLE
  2
BLOCK_RECORD
  5
1
330
0
100
AcDbSymbolTable
 70
     1
  0
BLOCK_RECORD
  5
1F
330
1
100
AcDbSymbolTableRecord
100
AcDbBlockTableRecord
  2
*MODEL_SPACE
  0
BLOCK_RECORD
  5
1B
330
1
100
AcDbSymbolTableRecord
100
AcDbBlockTableRecord
  2
*PAPER_SPACE
  0
ENDTAB
  0
ENDSEC
  0
SECTION
  2
BLOCKS
  0
BLOCK
  5
20
330
1F
100
AcDbEntity
  8
0
100
AcDbBlockBegin
  2
*MODEL_SPACE
 70
     0
 10
0.0
 20
0.0
 30
0.0
  3
*MODEL_SPACE
  1

  0
ENDBLK
  5
21
330
1F
100
AcDbEntity
  8
0
100
AcDbBlockEnd
  0
BLOCK
  5
1C
330
1B
100
AcDbEntity
 67
     1
  8
0
100
AcDbBlockBegin
  2
*PAPER_SPACE
  1

  0
ENDBLK
  5
1D
330
1B
100
AcDbEntity
 67
     1
  8
0
100
AcDbBlockEnd
  0
ENDSEC
  0
SECTION
  2
ENTITIES
  0
SPLINE
  5
100
100
AcDbEntity
  8
Page_1
 62
7
100
AcDbSpline
 70
8
 71
3
 72
8
 73
4
 74
0
 40
0
 40
0
 40
0
 40
0
 40
1
 40
1
 40
1
 40
1
 10
830.510152
 20
295.733394
 30
0.0
 10
830.475853
 20
295.727725
 30
0.0
 10
830.453175
 20
295.719222
 30
0.0
 10
830.418876
 20
295.713552
 30
0.0
  0
SPLINE
  5
101
100
AcDbEntity
  8
Page_1
 62
7
100
AcDbSpline
 70
8
 71
3
 72
8
 73
4
 74
0
 40
0
 40
0
 40
0
 40
0
 40
1
 40
1
 40
1
 40
1
 10
830.418876
 20
295.713552
 30
0.0
 10
830.899573
 20
295.601583
 30
0.0
 10
831.386763
 20
295.504922
 30
0.0
 10
831.876331
 20
295.418721
 30
0.0
  0
SPLINE
  5
102
100
AcDbEntity
  8
Page_1
 62
7
100
AcDbSpline
 70
8
 71
3
 72
8
 73
4
 74
0
 40
0
 40
0
 40
0
 40
0
 40
1
 40
1
 40
1
 40
1
 10
831.876331
 20
295.418721
 30
0.0
 10
831.418199
 20
295.529271
 30
0.0
 10
830.968370
 20
295.629618
 30
0.0
 10
830.510237
 20
295.734302
 30
0.0
  0
LWPOLYLINE
  5
103
100
AcDbEntity
  8
Page_1
 62
7
100
AcDbPolyline
 90
1
 70
1
 10
830.510237
 20
295.734302
 30
0.0
  0
LWPOLYLINE
  5
104
100
AcDbEntity
  8
Page_1
 62
7
100
AcDbPolyline
 90
6
 70
1
 10
77.418121
 20
272.382917
 30
0.0
 10
77.418121
 20
272.348792
 30
0.0
 10
77.377096
 20
272.260052
 30
0.0
 10
77.315671
 20
272.274002
 30
0.0
 10
77.295121
 20
272.342252
 30
0.0
 10
77.390701
 20
272.383352
 30
0.0
  0
LWPOLYLINE
  5
105
100
AcDbEntity
  8
Page_1
 62
7
100
AcDbPolyline
 90
6
 70
1
 10
77.418121
 20
280.378073
 30
0.0
 10
77.390746
 20
280.378073
 30
0.0
 10
77.295173
 20
280.426073
 30
0.0
 10
77.315723
 20
280.487573
 30
0.0
 10
77.377148
 20
280.501448
 30
0.0
 10
77.418173
 20
280.412715
 30
0.0
  0
LWPOLYLINE
  5
106
100
AcDbEntity
  8
Page_1
 62
7
100
AcDbPolyline
 90
6
 70
1
 10
93.995561
 20
280.378073
 30
0.0
 10
93.995561
 20
280.412198
 30
0.0
 10
94.036586
 20
280.500930
 30
0.0
 10
94.098011
 20
280.487055
 30
0.0
 10
94.111661
 20
280.425555
 30
0.0
 10
94.022914
 20
280.377555
 30
0.0
  0
LWPOLYLINE
  5
107
100
AcDbEntity
  8
Page_1
 62
7
100
AcDbPolyline
 90
6
 70
1
 10
93.995561
 20
272.382917
 30
0.0
 10
94.022936
 20
272.382917
 30
0.0
 10
94.111676
 20
272.341817
 30
0.0
 10
94.098026
 20
272.273567
 30
0.0
 10
94.036601
 20
272.259692
 30
0.0
 10
93.995576
 20
272.348432
 30
0.0
  0
LWPOLYLINE
  5
108
100
AcDbEntity
  8
Page_1
 62
7
100
AcDbPolyline
 90
4
 70
1
 10
77.418121
 20
272.382917
 30
0.0
 10
77.418121
 20
280.378073
 30
0.0
 10
93.995561
 20
280.378073
 30
0.0
 10
93.995561
 20
272.382917
 30
0.0
  0
LWPOLYLINE
  5
109
100
AcDbEntity
  8
Page_1
 62
7
100
AcDbPolyline
 90
6
 70
1
 10
222.587015
 20
280.378073
 30
0.0
 10
222.587015
 20
280.412198
 30
0.0
 10
222.621215
 20
280.500930
 30
0.0
 10
222.689465
 20
280.487055
 30
0.0
 10
222.703115
 20
280.425555
 30
0.0
 10
222.614338
 20
280.377555
 30
0.0
  0
LWPOLYLINE
  5
10a
100
AcDbEntity
  8
Page_1
 62
7
100
AcDbPolyline
 90
6
 70
1
 10
222.587015
 20
272.382917
 30
0.0
 10
222.614390
 20
272.382917
 30
0.0
 10
222.703168
 20
272.341817
 30
0.0
 10
222.689518
 20
272.273567
 30
0.0
 10
222.621268
 20
272.259692
 30
0.0
 10
222.587068
 20
272.348432
 30
0.0
  0
LWPOLYLINE
  5
10b
100
AcDbEntity
  8
Page_1
 62
7
100
AcDbPolyline
 90
6
 70
1
 10
206.016370
 20
272.382917
 30
0.0
 10
206.016370
 20
272.348792
 30
0.0
 10
205.968520
 20
272.260052
 30
0.0
 10
205.900270
 20
272.274002
 30
0.0
 10
205.893520
 20
272.342252
 30
0.0
 10
205.982282
 20
272.383352
 30
0.0
  0
LWPOLYLINE
  5
10c
100
AcDbEntity
  8
Page_1
 62
7
100
AcDbPolyline
 90
6
 70
1
 10
206.016370
 20
280.378073
 30
0.0
 10
205.982170
 20
280.378073
 30
0.0
 10
205.893407
 20
280.426073
 30
0.0
 10
205.900157
 20
280.487573
 30
0.0
 10
205.968407
 20
280.501448
 30
0.0
 10
206.016257
 20
280.412715
 30
0.0
  0
LWPOLYLINE
  5
10d
100
AcDbEntity
  8
Page_1
 62
7
100
AcDbPolyline
 90
4
 70
1
 10
222.587015
 20
280.378073
 30
0.0
 10
222.587015
 20
272.382917
 30
0.0
 10
206.016370
 20
272.382917
 30
0.0
 10
206.016370
 20
280.378073
 30
0.0
  0
LWPOLYLINE
  5
10e
100
AcDbEntity
  8
Page_1
 62
7
100
AcDbPolyline
 90
288
 70
1
 10
41.416053
 20
157.508225
 30
0.0
 10
41.368285
 20
157.508225
 30
0.0
 10
41.211247
 20
157.590297
 30
0.0
 10
41.129319
 20
157.747032
 30
0.0
 10
41.129319
 20
157.795032
 30
0.0
 10
41.129319
 20
180.654186
 30
0.0
 10
41.129319
 20
180.702186
 30
0.0
 10
41.211247
 20
180.859101
 30
0.0
 10
41.368285
 20
180.940881
 30
0.0
 10
41.416053
 20
180.940881
 30
0.0
 10
49.704790
 20
180.940881
 30
0.0
 10
49.732113
 20
180.940881
 30
0.0
 10
49.820871
 20
180.899781
 30
0.0
 10
49.807221
 20
180.831681
 30
0.0
 10
49.738941
 20
180.817731
 30
0.0
 10
49.704823
 20
180.913161
 30
0.0
 10
49.704823
 20
180.940311
 30
0.0
 10
49.704823
 20
197.511226
 30
0.0
 10
49.704823
 20
197.538376
 30
0.0
 10
49.738941
 20
197.633693
 30
0.0
 10
49.807221
 20
197.619818
 30
0.0
 10
49.820871
 20
197.551643
 30
0.0
 10
49.732113
 20
197.510543
 30
0.0
 10
49.704790
 20
197.510543
 30
0.0
 10
41.416053
 20
197.510543
 30
0.0
 10
41.368285
 20
197.510543
 30
0.0
 10
41.211247
 20
197.592443
 30
0.0
 10
41.129319
 20
197.749231
 30
0.0
 10
41.129319
 20
197.797231
 30
0.0
 10
41.129319
 20
214.941491
 30
0.0
 10
41.129319
 20
214.996466
 30
0.0
 10
41.211247
 20
215.146676
 30
0.0
 10
41.368285
 20
215.228576
 30
0.0
 10
41.416053
 20
215.228576
 30
0.0
 10
49.704790
 20
215.228576
 30
0.0
 10
49.732113
 20
215.228576
 30
0.0
 10
49.820871
 20
215.187476
 30
0.0
 10
49.807221
 20
215.126051
 30
0.0
 10
49.738941
 20
215.112176
 30
0.0
 10
49.704823
 20
215.200908
 30
0.0
 10
49.704823
 20
215.228058
 30
0.0
 10
49.704823
 20
231.805521
 30
0.0
 10
49.704823
 20
231.832671
 30
0.0
 10
49.738941
 20
231.928266
 30
0.0
 10
49.807221
 20
231.908091
 30
0.0
 10
49.820871
 20
231.846591
 30
0.0
 10
49.732113
 20
231.805491
 30
0.0
 10
49.704790
 20
231.805491
 30
0.0
 10
41.416053
 20
231.805491
 30
0.0
 10
41.368285
 20
231.805491
 30
0.0
 10
41.211247
 20
231.887451
 30
0.0
 10
41.129319
 20
232.037661
 30
0.0
 10
41.129319
 20
232.085661
 30
0.0
 10
41.129319
 20
249.229816
 30
0.0
 10
41.129319
 20
249.284791
 30
0.0
 10
41.211247
 20
249.435001
 30
0.0
 10
41.368285
 20
249.516916
 30
0.0
 10
41.416053
 20
249.516916
 30
0.0
 10
49.704790
 20
249.516916
 30
0.0
 10
49.732113
 20
249.516916
 30
0.0
 10
49.820871
 20
249.475816
 30
0.0
 10
49.807221
 20
249.407566
 30
0.0
 10
49.738941
 20
249.400816
 30
0.0
 10
49.704823
 20
249.489601
 30
0.0
 10
49.704823
 20
249.516751
 30
0.0
 10
49.704823
 20
266.087382
 30
0.0
 10
49.704823
 20
266.121507
 30
0.0
 10
49.738941
 20
266.210284
 30
0.0
 10
49.807221
 20
266.203534
 30
0.0
 10
49.820871
 20
266.135284
 30
0.0
 10
49.732113
 20
266.087284
 30
0.0
 10
49.704790
 20
266.087284
 30
0.0
 10
41.416053
 20
266.087284
 30
0.0
 10
41.368285
 20
266.087284
 30
0.0
 10
41.211247
 20
266.176077
 30
0.0
 10
41.129319
 20
266.333082
 30
0.0
 10
41.129319
 20
266.381082
 30
0.0
 10
41.129319
 20
289.239943
 30
0.0
 10
41.129319
 20
289.287943
 30
0.0
 10
41.211247
 20
289.445008
 30
0.0
 10
41.368285
 20
289.526915
 30
0.0
 10
41.416053
 20
289.526915
 30
0.0
 10
49.991551
 20
289.526915
 30
0.0
 10
250.020395
 20
289.526915
 30
0.0
 10
258.589060
 20
289.526915
 30
0.0
 10
258.636910
 20
289.526915
 30
0.0
 10
258.793945
 20
289.445008
 30
0.0
 10
258.875882
 20
289.287943
 30
0.0
 10
258.875882
 20
289.239943
 30
0.0
 10
258.875882
 20
266.381082
 30
0.0
 10
258.875882
 20
266.333082
 30
0.0
 10
258.793945
 20
266.176077
 30
0.0
 10
258.636910
 20
266.087284
 30
0.0
 10
258.589060
 20
266.087284
 30
0.0
 10
250.300332
 20
266.087284
 30
0.0
 10
250.272957
 20
266.087284
 30
0.0
 10
250.177370
 20
266.135284
 30
0.0
 10
250.197920
 20
266.203534
 30
0.0
 10
250.259345
 20
266.210284
 30
0.0
 10
250.300370
 20
266.121507
 30
0.0
 10
250.300370
 20
266.087382
 30
0.0
 10
250.300370
 20
249.516751
 30
0.0
 10
250.300370
 20
249.489601
 30
0.0
 10
250.259345
 20
249.400816
 30
0.0
 10
250.197920
 20
249.407566
 30
0.0
 10
250.177370
 20
249.475816
 30
0.0
 10
250.272957
 20
249.516916
 30
0.0
 10
250.300332
 20
249.516916
 30
0.0
 10
258.589060
 20
249.516916
 30
0.0
 10
258.636910
 20
249.516916
 30
0.0
 10
258.793945
 20
249.435001
 30
0.0
 10
258.875882
 20
249.284791
 30
0.0
 10
258.875882
 20
249.229816
 30
0.0
 10
258.875882
 20
232.085661
 30
0.0
 10
258.875882
 20
232.037661
 30
0.0
 10
258.793945
 20
231.887451
 30
0.0
 10
258.636910
 20
231.805491
 30
0.0
 10
258.589060
 20
231.805491
 30
0.0
 10
250.300332
 20
231.805491
 30
0.0
 10
250.272957
 20
231.805491
 30
0.0
 10
250.177370
 20
231.846591
 30
0.0
 10
250.197920
 20
231.908091
 30
0.0
 10
250.259345
 20
231.928266
 30
0.0
 10
250.300370
 20
231.832671
 30
0.0
 10
250.300370
 20
231.805521
 30
0.0
 10
250.300370
 20
215.228058
 30
0.0
 10
250.300370
 20
215.200908
 30
0.0
 10
250.259345
 20
215.112176
 30
0.0
 10
250.197920
 20
215.126051
 30
0.0
 10
250.177370
 20
215.187476
 30
0.0
 10
250.272957
 20
215.228576
 30
0.0
 10
250.300332
 20
215.228576
 30
0.0
 10
258.589060
 20
215.228576
 30
0.0
 10
258.636910
 20
215.228576
 30
0.0
 10
258.793945
 20
215.146676
 30
0.0
 10
258.875882
 20
214.996466
 30
0.0
 10
258.875882
 20
214.941491
 30
0.0
 10
258.875882
 20
197.797231
 30
0.0
 10
258.875882
 20
197.749231
 30
0.0
 10
258.793945
 20
197.592443
 30
0.0
 10
258.636910
 20
197.510543
 30
0.0
 10
258.589060
 20
197.510543
 30
0.0
 10
250.300332
 20
197.510543
 30
0.0
 10
250.272957
 20
197.510543
 30
0.0
 10
250.177370
 20
197.551643
 30
0.0
 10
250.197920
 20
197.619818
 30
0.0
 10
250.259345
 20
197.633693
 30
0.0
 10
250.300370
 20
197.538376
 30
0.0
 10
250.300370
 20
197.511226
 30
0.0
 10
250.300370
 20
180.940311
 30
0.0
 10
250.300370
 20
180.913161
 30
0.0
 10
250.259345
 20
180.817731
 30
0.0
 10
250.197920
 20
180.831681
 30
0.0
 10
250.177370
 20
180.899781
 30
0.0
 10
250.272957
 20
180.940881
 30
0.0
 10
250.300332
 20
180.940881
 30
0.0
 10
258.589060
 20
180.940881
 30
0.0
 10
258.636910
 20
180.940881
 30
0.0
 10
258.793945
 20
180.859101
 30
0.0
 10
258.875882
 20
180.702186
 30
0.0
 10
258.875882
 20
180.654186
 30
0.0
 10
258.875882
 20
157.795032
 30
0.0
 10
258.875882
 20
157.747032
 30
0.0
 10
258.793945
 20
157.590297
 30
0.0
 10
258.636910
 20
157.508225
 30
0.0
 10
258.589060
 20
157.508225
 30
0.0
 10
250.020395
 20
157.508225
 30
0.0
 10
227.441441
 20
157.508225
 30
0.0
 10
227.414066
 20
157.508225
 30
0.0
 10
227.325311
 20
157.549325
 30
0.0
 10
227.332061
 20
157.617650
 30
0.0
 10
227.400311
 20
157.624400
 30
0.0
 10
227.441336
 20
157.535502
 30
0.0
 10
227.441336
 20
157.508352
 30
0.0
 10
227.441336
 20
149.219767
 30
0.0
 10
227.441336
 20
149.171767
 30
0.0
 10
227.359406
 20
149.021392
 30
0.0
 10
227.202379
 20
148.932502
 30
0.0
 10
227.154529
 20
148.932502
 30
0.0
 10
210.010381
 20
148.932502
 30
0.0
 10
209.962531
 20
148.932502
 30
0.0
 10
209.812314
 20
149.021392
 30
0.0
 10
209.730384
 20
149.171767
 30
0.0
 10
209.730384
 20
149.219767
 30
0.0
 10
209.730384
 20
157.508352
 30
0.0
 10
209.730384
 20
157.535502
 30
0.0
 10
209.764584
 20
157.624400
 30
0.0
 10
209.832834
 20
157.617650
 30
0.0
 10
209.846484
 20
157.549325
 30
0.0
 10
209.757729
 20
157.508225
 30
0.0
 10
209.730354
 20
157.508225
 30
0.0
 10
193.152898
 20
157.508225
 30
0.0
 10
193.118698
 20
157.508225
 30
0.0
 10
193.029943
 20
157.549325
 30
0.0
 10
193.050493
 20
157.617650
 30
0.0
 10
193.111918
 20
157.624400
 30
0.0
 10
193.152943
 20
157.535502
 30
0.0
 10
193.152943
 20
157.508352
 30
0.0
 10
193.152943
 20
149.219767
 30
0.0
 10
193.152943
 20
149.171767
 30
0.0
 10
193.064166
 20
149.021392
 30
0.0
 10
192.920788
 20
148.932502
 30
0.0
 10
192.872938
 20
148.932502
 30
0.0
 10
175.721958
 20
148.932502
 30
0.0
 10
175.674108
 20
148.932502
 30
0.0
 10
175.517073
 20
149.021392
 30
0.0
 10
175.435166
 20
149.171767
 30
0.0
 10
175.435166
 20
149.219767
 30
0.0
 10
175.435166
 20
157.508352
 30
0.0
 10
175.435166
 20
157.535502
 30
0.0
 10
175.476191
 20
157.624400
 30
0.0
 10
175.544441
 20
157.617650
 30
0.0
 10
175.558091
 20
157.549325
 30
0.0
 10
175.462481
 20
157.508225
 30
0.0
 10
175.435106
 20
157.508225
 30
0.0
 10
158.864453
 20
157.508225
 30
0.0
 10
158.830253
 20
157.508225
 30
0.0
 10
158.741475
 20
157.549325
 30
0.0
 10
158.755125
 20
157.617650
 30
0.0
 10
158.816550
 20
157.624400
 30
0.0
 10
158.864400
 20
157.535502
 30
0.0
 10
158.864400
 20
157.508352
 30
0.0
 10
158.864400
 20
149.219767
 30
0.0
 10
158.864400
 20
149.171767
 30
0.0
 10
158.775660
 20
149.021392
 30
0.0
 10
158.625450
 20
148.932502
 30
0.0
 10
158.577601
 20
148.932502
 30
0.0
 10
141.426620
 20
148.932502
 30
0.0
 10
141.378770
 20
148.932502
 30
0.0
 10
141.228553
 20
149.021392
 30
0.0
 10
141.146600
 20
149.171767
 30
0.0
 10
141.146600
 20
149.219767
 30
0.0
 10
141.146600
 20
157.508352
 30
0.0
 10
141.146600
 20
157.535502
 30
0.0
 10
141.187625
 20
157.624400
 30
0.0
 10
141.255875
 20
157.617650
 30
0.0
 10
141.262625
 20
157.549325
 30
0.0
 10
141.173878
 20
157.508225
 30
0.0
 10
141.146503
 20
157.508225
 30
0.0
 10
124.569055
 20
157.508225
 30
0.0
 10
124.541680
 20
157.508225
 30
0.0
 10
124.452940
 20
157.549325
 30
0.0
 10
124.459690
 20
157.617650
 30
0.0
 10
124.527940
 20
157.624400
 30
0.0
 10
124.568965
 20
157.535502
 30
0.0
 10
124.568965
 20
157.508352
 30
0.0
 10
124.568965
 20
149.219767
 30
0.0
 10
124.568965
 20
149.171767
 30
0.0
 10
124.487013
 20
149.021392
 30
0.0
 10
124.329978
 20
148.932502
 30
0.0
 10
124.282128
 20
148.932502
 30
0.0
 10
107.137957
 20
148.932502
 30
0.0
 10
107.090107
 20
148.932502
 30
0.0
 10
106.939905
 20
149.021392
 30
0.0
 10
106.857998
 20
149.171767
 30
0.0
 10
106.857998
 20
149.219767
 30
0.0
 10
106.857998
 20
157.508352
 30
0.0
 10
106.857998
 20
157.535502
 30
0.0
 10
106.892198
 20
157.624400
 30
0.0
 10
106.960522
 20
157.617650
 30
0.0
 10
106.974172
 20
157.549325
 30
0.0
 10
106.885418
 20
157.508225
 30
0.0
 10
106.858043
 20
157.508225
 30
0.0
 10
90.280557
 20
157.508225
 30
0.0
 10
90.246357
 20
157.508225
 30
0.0
 10
90.157557
 20
157.549325
 30
0.0
 10
90.171207
 20
157.617650
 30
0.0
 10
90.239532
 20
157.624400
 30
0.0
 10
90.280557
 20
157.535502
 30
0.0
 10
90.280557
 20
157.508352
 30
0.0
 10
90.280557
 20
149.219767
 30
0.0
 10
90.280557
 20
149.171767
 30
0.0
 10
90.191817
 20
149.021392
 30
0.0
 10
90.041630
 20
148.932502
 30
0.0
 10
89.993780
 20
148.932502
 30
0.0
 10
72.849626
 20
148.932502
 30
0.0
 10
72.794974
 20
148.932502
 30
0.0
 10
72.644765
 20
149.021392
 30
0.0
 10
72.562805
 20
149.171767
 30
0.0
 10
72.562805
 20
149.219767
 30
0.0
 10
72.562805
 20
157.508352
 30
0.0
 10
72.562805
 20
157.535502
 30
0.0
 10
72.603808
 20
157.624400
 30
0.0
 10
72.672103
 20
157.617650
 30
0.0
 10
72.678928
 20
157.549325
 30
0.0
 10
72.590188
 20
157.508225
 30
0.0
 10
72.562978
 20
157.508225
 30
0.0
 10
49.990874
 20
157.508225
 30
0.0
  0
LWPOLYLINE
  5
10f
100
AcDbEntity
  8
Page_1
 62
7
100
AcDbPolyline
 90
6
 70
1
 10
299.452386
 20
272.382917
 30
0.0
 10
299.452386
 20
272.348792
 30
0.0
 10
299.411361
 20
272.260052
 30
0.0
 10
299.343111
 20
272.274002
 30
0.0
 10
299.329461
 20
272.342252
 30
0.0
 10
299.425033
 20
272.383352
 30
0.0
  0
LWPOLYLINE
  5
110
100
AcDbEntity
  8
Page_1
 62
7
100
AcDbPolyline
 90
6
 70
1
 10
299.452386
 20
280.378073
 30
0.0
 10
299.425011
 20
280.378073
 30
0.0
 10
299.329431
 20
280.426073
 30
0.0
 10
299.343081
 20
280.487573
 30
0.0
 10
299.411331
 20
280.501448
 30
0.0
 10
299.452356
 20
280.412715
 30
0.0
  0
LWPOLYLINE
  5
111
100
AcDbEntity
  8
Page_1
 62
7
100
AcDbPolyline
 90
6
 70
1
 10
316.029841
 20
280.378073
 30
0.0
 10
316.029841
 20
280.412198
 30
0.0
 10
316.070866
 20
280.500930
 30
0.0
 10
316.132291
 20
280.487055
 30
0.0
 10
316.145941
 20
280.425555
 30
0.0
 10
316.057186
 20
280.377555
 30
0.0
  0
LWPOLYLINE
  5
112
100
AcDbEntity
  8
Page_1
 62
7
100
AcDbPolyline
 90
6
 70
1
 10
316.029841
 20
272.382917
 30
0.0
 10
316.057216
 20
272.382917
 30
0.0
 10
316.145979
 20
272.341817
 30
0.0
 10
316.132329
 20
272.273567
 30
0.0
 10
316.070904
 20
272.259692
 30
0.0
 10
316.029879
 20
272.348432
 30
0.0
  0
LWPOLYLINE
  5
113
100
AcDbEntity
  8
Page_1
 62
7
100
AcDbPolyline
 90
4
 70
1
 10
299.452386
 20
272.382917
 30
0.0
 10
299.452386
 20
280.378073
 30
0.0
 10
316.029841
 20
280.378073
 30
0.0
 10
316.029841
 20
272.382917
 30
0.0
  0
LWPOLYLINE
  5
114
100
AcDbEntity
  8
Page_1
 62
7
100
AcDbPolyline
 90
6
 70
1
 10
530.348896
 20
280.378073
 30
0.0
 10
530.348896
 20
280.412198
 30
0.0
 10
530.389921
 20
280.500930
 30
0.0
 10
530.451346
 20
280.487055
 30
0.0
 10
530.464996
 20
280.425555
 30
0.0
 10
530.376226
 20
280.377555
 30
0.0
  0
LWPOLYLINE
  5
115
100
AcDbEntity
  8
Page_1
 62
7
100
AcDbPolyline
 90
6
 70
1
 10
530.348896
 20
272.382917
 30
0.0
 10
530.376271
 20
272.382917
 30
0.0
 10
530.465034
 20
272.341817
 30
0.0
 10
530.451384
 20
272.273567
 30
0.0
 10
530.389959
 20
272.259692
 30
0.0
 10
530.348934
 20
272.348432
 30
0.0
  0
LWPOLYLINE
  5
116
100
AcDbEntity
  8
Page_1
 62
7
100
AcDbPolyline
 90
6
 70
1
 10
513.771426
 20
272.382917
 30
0.0
 10
513.771426
 20
272.348792
 30
0.0
 10
513.730401
 20
272.260052
 30
0.0
 10
513.668976
 20
272.274002
 30
0.0
 10
513.648501
 20
272.342252
 30
0.0
 10
513.744081
 20
272.383352
 30
0.0
  0
LWPOLYLINE
  5
117
100
AcDbEntity
  8
Page_1
 62
7
100
AcDbPolyline
 90
6
 70
1
 10
513.771426
 20
280.378073
 30
0.0
 10
513.744051
 20
280.378073
 30
0.0
 10
513.648471
 20
280.426073
 30
0.0
 10
513.668946
 20
280.487573
 30
0.0
 10
513.730371
 20
280.501448
 30
0.0
 10
513.771396
 20
280.412715
 30
0.0
  0
LWPOLYLINE
  5
118
100
AcDbEntity
  8
Page_1
 62
7
100
AcDbPolyline
 90
4
 70
1
 10
530.348896
 20
280.378073
 30
0.0
 10
530.348896
 20
272.382917
 30
0.0
 10
513.771426
 20
272.382917
 30
0.0
 10
513.771426
 20
280.378073
 30
0.0
  0
LWPOLYLINE
  5
119
100
AcDbEntity
  8
Page_1
 62
7
100
AcDbPolyline
 90
332
 70
1
 10
271.971194
 20
157.508225
 30
0.0
 10
271.820991
 20
157.590297
 30
0.0
 10
271.739076
 20
157.747032
 30
0.0
 10
271.739076
 20
157.795032
 30
0.0
 10
271.739076
 20
180.367146
 30
0.0
 10
271.739076
 20
180.394296
 30
0.0
 10
271.773276
 20
180.483081
 30
0.0
 10
271.841526
 20
180.476331
 30
0.0
 10
271.855176
 20
180.408006
 30
0.0
 10
271.766414
 20
180.366906
 30
0.0
 10
271.739039
 20
180.366906
 30
0.0
 10
263.450281
 20
180.366906
 30
0.0
 10
263.395531
 20
180.366906
 30
0.0
 10
263.245321
 20
180.448858
 30
0.0
 10
263.163391
 20
180.606118
 30
0.0
 10
263.163391
 20
180.654118
 30
0.0
 10
263.163391
 20
197.798078
 30
0.0
 10
263.163391
 20
197.846078
 30
0.0
 10
263.245321
 20
198.003331
 30
0.0
 10
263.395531
 20
198.085343
 30
0.0
 10
263.450281
 20
198.085343
 30
0.0
 10
271.739039
 20
198.085343
 30
0.0
 10
271.766414
 20
198.085343
 30
0.0
 10
271.855176
 20
198.044243
 30
0.0
 10
271.841526
 20
197.975918
 30
0.0
 10
271.773276
 20
197.969168
 30
0.0
 10
271.739076
 20
198.058006
 30
0.0
 10
271.739076
 20
198.085156
 30
0.0
 10
271.739076
 20
214.655599
 30
0.0
 10
271.739076
 20
214.689724
 30
0.0
 10
271.773276
 20
214.778524
 30
0.0
 10
271.841526
 20
214.764649
 30
0.0
 10
271.855176
 20
214.696399
 30
0.0
 10
271.766414
 20
214.655299
 30
0.0
 10
271.739039
 20
214.655299
 30
0.0
 10
263.450281
 20
214.655299
 30
0.0
 10
263.395531
 20
214.655299
 30
0.0
 10
263.245321
 20
214.744091
 30
0.0
 10
263.163391
 20
214.894278
 30
0.0
 10
263.163391
 20
214.942278
 30
0.0
 10
263.163391
 20
232.086426
 30
0.0
 10
263.163391
 20
232.141401
 30
0.0
 10
263.245321
 20
232.291589
 30
0.0
 10
263.395531
 20
232.373496
 30
0.0
 10
263.450281
 20
232.373496
 30
0.0
 10
271.739039
 20
232.373496
 30
0.0
 10
271.766414
 20
232.373496
 30
0.0
 10
271.855176
 20
232.332396
 30
0.0
 10
271.841526
 20
232.264071
 30
0.0
 10
271.773276
 20
232.250196
 30
0.0
 10
271.739076
 20
232.345784
 30
0.0
 10
271.739076
 20
232.372934
 30
0.0
 10
271.739076
 20
248.943601
 30
0.0
 10
271.739076
 20
248.977726
 30
0.0
 10
271.773276
 20
249.066519
 30
0.0
 10
271.841526
 20
249.052644
 30
0.0
 10
271.855176
 20
248.991219
 30
0.0
 10
271.766414
 20
248.943219
 30
0.0
 10
271.739039
 20
248.943219
 30
0.0
 10
263.450281
 20
248.943219
 30
0.0
 10
263.395531
 20
248.943219
 30
0.0
 10
263.245321
 20
249.031996
 30
0.0
 10
263.163391
 20
249.189009
 30
0.0
 10
263.163391
 20
249.230109
 30
0.0
 10
263.163391
 20
266.381134
 30
0.0
 10
263.163391
 20
266.429134
 30
0.0
 10
263.245321
 20
266.586154
 30
0.0
 10
263.395531
 20
266.668121
 30
0.0
 10
263.450281
 20
266.668121
 30
0.0
 10
271.739039
 20
266.668121
 30
0.0
 10
271.766414
 20
266.668121
 30
0.0
 10
271.855176
 20
266.627021
 30
0.0
 10
271.841526
 20
266.558771
 30
0.0
 10
271.773276
 20
266.544821
 30
0.0
 10
271.739076
 20
266.640431
 30
0.0
 10
271.739076
 20
266.667581
 30
0.0
 10
271.739076
 20
289.239680
 30
0.0
 10
271.739076
 20
289.287680
 30
0.0
 10
271.820991
 20
289.444745
 30
0.0
 10
271.971194
 20
289.526653
 30
0.0
 10
272.019044
 20
289.526653
 30
0.0
 10
557.775563
 20
289.526653
 30
0.0
 10
557.823563
 20
289.526653
 30
0.0
 10
557.980568
 20
289.444745
 30
0.0
 10
558.062536
 20
289.287680
 30
0.0
 10
558.062536
 20
289.239680
 30
0.0
 10
558.062536
 20
266.667581
 30
0.0
 10
558.062536
 20
266.640431
 30
0.0
 10
558.021436
 20
266.544821
 30
0.0
 10
557.953186
 20
266.558771
 30
0.0
 10
557.939311
 20
266.627021
 30
0.0
 10
558.034906
 20
266.668121
 30
0.0
 10
558.062056
 20
266.668121
 30
0.0
 10
566.350784
 20
266.668121
 30
0.0
 10
566.398784
 20
266.668121
 30
0.0
 10
566.548986
 20
266.586154
 30
0.0
 10
566.637779
 20
266.429134
 30
0.0
 10
566.637779
 20
266.381134
 30
0.0
 10
566.637779
 20
249.230109
 30
0.0
 10
566.637779
 20
249.189009
 30
0.0
 10
566.548986
 20
249.031996
 30
0.0
 10
566.398784
 20
248.943219
 30
0.0
 10
566.350784
 20
248.943219
 30
0.0
 10
558.062056
 20
248.943219
 30
0.0
 10
558.034906
 20
248.943219
 30
0.0
 10
557.939311
 20
248.991219
 30
0.0
 10
557.953186
 20
249.052644
 30
0.0
 10
558.021436
 20
249.066519
 30
0.0
 10
558.062536
 20
248.977726
 30
0.0
 10
558.062536
 20
248.943601
 30
0.0
 10
558.062536
 20
232.372934
 30
0.0
 10
558.062536
 20
232.345784
 30
0.0
 10
558.021436
 20
232.250196
 30
0.0
 10
557.953186
 20
232.264071
 30
0.0
 10
557.939311
 20
232.332396
 30
0.0
 10
558.034906
 20
232.373496
 30
0.0
 10
558.062056
 20
232.373496
 30
0.0
 10
566.350784
 20
232.373496
 30
0.0
 10
566.398784
 20
232.373496
 30
0.0
 10
566.548986
 20
232.291589
 30
0.0
 10
566.637779
 20
232.141401
 30
0.0
 10
566.637779
 20
232.086426
 30
0.0
 10
566.637779
 20
214.942278
 30
0.0
 10
566.637779
 20
214.894278
 30
0.0
 10
566.548986
 20
214.744091
 30
0.0
 10
566.398784
 20
214.655299
 30
0.0
 10
566.350784
 20
214.655299
 30
0.0
 10
558.062056
 20
214.655299
 30
0.0
 10
558.034906
 20
214.655299
 30
0.0
 10
557.939311
 20
214.696399
 30
0.0
 10
557.953186
 20
214.764649
 30
0.0
 10
558.021436
 20
214.778524
 30
0.0
 10
558.062536
 20
214.689724
 30
0.0
 10
558.062536
 20
214.655599
 30
0.0
 10
558.062536
 20
198.085156
 30
0.0
 10
558.062536
 20
198.058006
 30
0.0
 10
558.021436
 20
197.969168
 30
0.0
 10
557.953186
 20
197.975918
 30
0.0
 10
557.939311
 20
198.044243
 30
0.0
 10
558.034906
 20
198.085343
 30
0.0
 10
558.062056
 20
198.085343
 30
0.0
 10
566.350784
 20
198.085343
 30
0.0
 10
566.398784
 20
198.085343
 30
0.0
 10
566.548986
 20
198.003331
 30
0.0
 10
566.637779
 20
197.846078
 30
0.0
 10
566.637779
 20
197.798078
 30
0.0
 10
566.637779
 20
180.654118
 30
0.0
 10
566.637779
 20
180.606118
 30
0.0
 10
566.548986
 20
180.448858
 30
0.0
 10
566.398784
 20
180.366906
 30
0.0
 10
566.350784
 20
180.366906
 30
0.0
 10
558.062056
 20
180.366906
 30
0.0
 10
558.034906
 20
180.366906
 30
0.0
 10
557.939311
 20
180.408006
 30
0.0
 10
557.953186
 20
180.476331
 30
0.0
 10
558.021436
 20
180.483081
 30
0.0
 10
558.062536
 20
180.394296
 30
0.0
 10
558.062536
 20
180.367146
 30
0.0
 10
558.062536
 20
157.795032
 30
0.0
 10
558.062536
 20
157.747032
 30
0.0
 10
557.980568
 20
157.590297
 30
0.0
 10
557.823563
 20
157.508225
 30
0.0
 10
557.775563
 20
157.508225
 30
0.0
 10
526.634747
 20
157.508225
 30
0.0
 10
526.600547
 20
157.508225
 30
0.0
 10
526.511777
 20
157.549325
 30
0.0
 10
526.525427
 20
157.617650
 30
0.0
 10
526.586852
 20
157.624400
 30
0.0
 10
526.634702
 20
157.535502
 30
0.0
 10
526.634702
 20
157.508352
 30
0.0
 10
526.634702
 20
149.219767
 30
0.0
 10
526.634702
 20
149.171767
 30
0.0
 10
526.545932
 20
149.021392
 30
0.0
 10
526.388897
 20
148.932502
 30
0.0
 10
526.347872
 20
148.932502
 30
0.0
 10
509.203732
 20
148.932502
 30
0.0
 10
509.148982
 20
148.932502
 30
0.0
 10
508.991947
 20
149.021392
 30
0.0
 10
508.916842
 20
149.171767
 30
0.0
 10
508.916842
 20
149.219767
 30
0.0
 10
508.916842
 20
157.508352
 30
0.0
 10
508.916842
 20
157.535502
 30
0.0
 10
508.951042
 20
157.624400
 30
0.0
 10
509.019292
 20
157.617650
 30
0.0
 10
509.032942
 20
157.549325
 30
0.0
 10
508.937347
 20
157.508225
 30
0.0
 10
508.916797
 20
157.508225
 30
0.0
 10
492.339327
 20
157.508225
 30
0.0
 10
492.305127
 20
157.508225
 30
0.0
 10
492.216372
 20
157.549325
 30
0.0
 10
492.230022
 20
157.617650
 30
0.0
 10
492.298272
 20
157.624400
 30
0.0
 10
492.339297
 20
157.535502
 30
0.0
 10
492.339297
 20
157.508352
 30
0.0
 10
492.339297
 20
149.219767
 30
0.0
 10
492.339297
 20
149.171767
 30
0.0
 10
492.257359
 20
149.021392
 30
0.0
 10
492.100324
 20
148.932502
 30
0.0
 10
492.052474
 20
148.932502
 30
0.0
 10
474.908297
 20
148.932502
 30
0.0
 10
474.860447
 20
148.932502
 30
0.0
 10
474.710252
 20
149.021392
 30
0.0
 10
474.628314
 20
149.171767
 30
0.0
 10
474.628314
 20
149.219767
 30
0.0
 10
474.628314
 20
157.508352
 30
0.0
 10
474.628314
 20
157.535502
 30
0.0
 10
474.669339
 20
157.624400
 30
0.0
 10
474.730764
 20
157.617650
 30
0.0
 10
474.744414
 20
157.549325
 30
0.0
 10
474.648834
 20
157.508225
 30
0.0
 10
474.628359
 20
157.508225
 30
0.0
 10
458.050904
 20
157.508225
 30
0.0
 10
458.023529
 20
157.508225
 30
0.0
 10
457.927942
 20
157.549325
 30
0.0
 10
457.941592
 20
157.617650
 30
0.0
 10
458.009841
 20
157.624400
 30
0.0
 10
458.050866
 20
157.535502
 30
0.0
 10
458.050866
 20
157.508352
 30
0.0
 10
458.050866
 20
149.219767
 30
0.0
 10
458.050866
 20
149.171767
 30
0.0
 10
457.962097
 20
149.021392
 30
0.0
 10
457.811879
 20
148.932502
 30
0.0
 10
457.764029
 20
148.932502
 30
0.0
 10
440.619889
 20
148.932502
 30
0.0
 10
440.565139
 20
148.932502
 30
0.0
 10
440.414929
 20
149.021392
 30
0.0
 10
440.332999
 20
149.171767
 30
0.0
 10
440.332999
 20
149.219767
 30
0.0
 10
440.332999
 20
157.508352
 30
0.0
 10
440.332999
 20
157.535502
 30
0.0
 10
440.367199
 20
157.624400
 30
0.0
 10
440.435449
 20
157.617650
 30
0.0
 10
440.449099
 20
157.549325
 30
0.0
 10
440.360336
 20
157.508225
 30
0.0
 10
440.332961
 20
157.508225
 30
0.0
 10
423.762301
 20
157.508225
 30
0.0
 10
423.728101
 20
157.508225
 30
0.0
 10
423.639339
 20
157.549325
 30
0.0
 10
423.652989
 20
157.617650
 30
0.0
 10
423.721314
 20
157.624400
 30
0.0
 10
423.762339
 20
157.535502
 30
0.0
 10
423.762339
 20
157.508352
 30
0.0
 10
423.762339
 20
149.219767
 30
0.0
 10
423.762339
 20
149.171767
 30
0.0
 10
423.673591
 20
149.021392
 30
0.0
 10
423.523396
 20
148.932502
 30
0.0
 10
423.475546
 20
148.932502
 30
0.0
 10
406.324551
 20
148.932502
 30
0.0
 10
406.276701
 20
148.932502
 30
0.0
 10
406.126506
 20
149.021392
 30
0.0
 10
406.044576
 20
149.171767
 30
0.0
 10
406.044576
 20
149.219767
 30
0.0
 10
406.044576
 20
157.508352
 30
0.0
 10
406.044576
 20
157.535502
 30
0.0
 10
406.078776
 20
157.624400
 30
0.0
 10
406.147026
 20
157.617650
 30
0.0
 10
406.160676
 20
157.549325
 30
0.0
 10
406.065096
 20
157.508225
 30
0.0
 10
406.044621
 20
157.508225
 30
0.0
 10
389.467166
 20
157.508225
 30
0.0
 10
389.432966
 20
157.508225
 30
0.0
 10
389.344196
 20
157.549325
 30
0.0
 10
389.357846
 20
157.617650
 30
0.0
 10
389.419271
 20
157.624400
 30
0.0
 10
389.467121
 20
157.535502
 30
0.0
 10
389.467121
 20
157.508352
 30
0.0
 10
389.467121
 20
149.219767
 30
0.0
 10
389.467121
 20
149.171767
 30
0.0
 10
389.385168
 20
149.021392
 30
0.0
 10
389.228126
 20
148.932502
 30
0.0
 10
389.180276
 20
148.932502
 30
0.0
 10
372.036128
 20
148.932502
 30
0.0
 10
371.988278
 20
148.932502
 30
0.0
 10
371.831251
 20
149.021392
 30
0.0
 10
371.749328
 20
149.171767
 30
0.0
 10
371.749328
 20
149.219767
 30
0.0
 10
371.749328
 20
157.508352
 30
0.0
 10
371.749328
 20
157.535502
 30
0.0
 10
371.790353
 20
157.624400
 30
0.0
 10
371.858603
 20
157.617650
 30
0.0
 10
371.865353
 20
157.549325
 30
0.0
 10
371.776576
 20
157.508225
 30
0.0
 10
371.749201
 20
157.508225
 30
0.0
 10
355.178540
 20
157.508225
 30
0.0
 10
355.144340
 20
157.508225
 30
0.0
 10
355.055578
 20
157.549325
 30
0.0
 10
355.069228
 20
157.617650
 30
0.0
 10
355.130653
 20
157.624400
 30
0.0
 10
355.178503
 20
157.535502
 30
0.0
 10
355.178503
 20
157.508352
 30
0.0
 10
355.178503
 20
149.219767
 30
0.0
 10
355.178503
 20
149.171767
 30
0.0
 10
355.096580
 20
149.021392
 30
0.0
 10
354.939553
 20
148.932502
 30
0.0
 10
354.891703
 20
148.932502
 30
0.0
 10
337.747548
 20
148.932502
 30
0.0
 10
337.692798
 20
148.932502
 30
0.0
 10
337.542580
 20
149.021392
 30
0.0
 10
337.453810
 20
149.171767
 30
0.0
 10
337.453810
 20
149.219767
 30
0.0
 10
337.453810
 20
157.508352
 30
0.0
 10
337.453810
 20
157.535502
 30
0.0
 10
337.501660
 20
157.624400
 30
0.0
 10
337.563085
 20
157.617650
 30
0.0
 10
337.576735
 20
157.549325
 30
0.0
 10
337.487988
 20
157.508225
 30
0.0
 10
337.453788
 20
157.508225
 30
0.0
 10
320.890005
 20
157.508225
 30
0.0
 10
320.855805
 20
157.508225
 30
0.0
 10
320.767057
 20
157.549325
 30
0.0
 10
320.773807
 20
157.617650
 30
0.0
 10
320.848890
 20
157.624400
 30
0.0
 10
320.889915
 20
157.535502
 30
0.0
 10
320.889915
 20
157.508352
 30
0.0
 10
320.889915
 20
149.219767
 30
0.0
 10
320.889915
 20
149.171767
 30
0.0
 10
320.801137
 20
149.021392
 30
0.0
 10
320.650928
 20
148.932502
 30
0.0
 10
320.603078
 20
148.932502
 30
0.0
 10
303.452082
 20
148.932502
 30
0.0
 10
303.404232
 20
148.932502
 30
0.0
 10
303.254030
 20
149.021392
 30
0.0
 10
303.165290
 20
149.171767
 30
0.0
 10
303.165290
 20
149.219767
 30
0.0
 10
303.165290
 20
157.508352
 30
0.0
 10
303.165290
 20
157.535502
 30
0.0
 10
303.206315
 20
157.624400
 30
0.0
 10
303.274565
 20
157.617650
 30
0.0
 10
303.288215
 20
157.549325
 30
0.0
 10
303.192612
 20
157.508225
 30
0.0
 10
303.165237
 20
157.508225
 30
0.0
 10
272.017611
 20
157.508225
 30
0.0
  0
LWPOLYLINE
  5
11a
100
AcDbEntity
  8
Page_1
 62
7
100
AcDbPolyline
 90
6
 70
1
 10
299.452386
 20
417.258239
 30
0.0
 10
299.452386
 20
417.231089
 30
0.0
 10
299.411361
 20
417.135472
 30
0.0
 10
299.343111
 20
417.149422
 30
0.0
 10
299.329461
 20
417.217672
 30
0.0
 10
299.425033
 20
417.258772
 30
0.0
  0
LWPOLYLINE
  5
11b
100
AcDbEntity
  8
Page_1
 62
7
100
AcDbPolyline
 90
6
 70
1
 10
299.452386
 20
425.260204
 30
0.0
 10
299.425011
 20
425.260204
 30
0.0
 10
299.329431
 20
425.301304
 30
0.0
 10
299.343081
 20
425.369554
 30
0.0
 10
299.411331
 20
425.376304
 30
0.0
 10
299.452356
 20
425.294389
 30
0.0
  0
LWPOLYLINE
  5
11c
100
AcDbEntity
  8
Page_1
 62
7
100
AcDbPolyline
 90
6
 70
1
 10
316.029841
 20
425.260204
 30
0.0
 10
316.029841
 20
425.294329
 30
0.0
 10
316.070866
 20
425.376244
 30
0.0
 10
316.132291
 20
425.369494
 30
0.0
 10
316.145941
 20
425.301244
 30
0.0
 10
316.057186
 20
425.260144
 30
0.0
  0
LWPOLYLINE
  5
11d
100
AcDbEntity
  8
Page_1
 62
7
100
AcDbPolyline
 90
6
 70
1
 10
316.029841
 20
417.258239
 30
0.0
 10
316.057216
 20
417.258239
 30
0.0
 10
316.145979
 20
417.217139
 30
0.0
 10
316.132329
 20
417.148889
 30
0.0
 10
316.070904
 20
417.134939
 30
0.0
 10
316.029879
 20
417.230557
 30
0.0
  0
LWPOLYLINE
  5
11e
100
AcDbEntity
  8
Page_1
 62
7
100
AcDbPolyline
 90
4
 70
1
 10
299.452386
 20
417.258239
 30
0.0
 10
299.452386
 20
425.260204
 30
0.0
 10
316.029841
 20
425.260204
 30
0.0
 10
316.029841
 20
417.258239
 30
0.0
  0
LWPOLYLINE
  5
11f
100
AcDbEntity
  8
Page_1
 62
7
100
AcDbPolyline
 90
6
 70
1
 10
530.348896
 20
425.260204
 30
0.0
 10
530.348896
 20
425.294329
 30
0.0
 10
530.389921
 20
425.376244
 30
0.0
 10
530.451346
 20
425.369494
 30
0.0
 10
530.464996
 20
425.301244
 30
0.0
 10
530.376226
 20
425.260144
 30
0.0
  0
LWPOLYLINE
  5
120
100
AcDbEntity
  8
Page_1
 62
7
100
AcDbPolyline
 90
6
 70
1
 10
530.348896
 20
417.258239
 30
0.0
 10
530.376271
 20
417.258239
 30
0.0
 10
530.465034
 20
417.217139
 30
0.0
 10
530.451384
 20
417.148889
 30
0.0
 10
530.389959
 20
417.134939
 30
0.0
 10
530.348934
 20
417.230557
 30
0.0
  0
LWPOLYLINE
  5
121
100
AcDbEntity
  8
Page_1
 62
7
100
AcDbPolyline
 90
6
 70
1
 10
513.771426
 20
417.258239
 30
0.0
 10
513.771426
 20
417.231089
 30
0.0
 10
513.730401
 20
417.135472
 30
0.0
 10
513.668976
 20
417.149422
 30
0.0
 10
513.648501
 20
417.217672
 30
0.0
 10
513.744081
 20
417.258772
 30
0.0
  0
LWPOLYLINE
  5
122
100
AcDbEntity
  8
Page_1
 62
7
100
AcDbPolyline
 90
6
 70
1
 10
513.771426
 20
425.260204
 30
0.0
 10
513.744051
 20
425.260204
 30
0.0
 10
513.648471
 20
425.301304
 30
0.0
 10
513.668946
 20
425.369554
 30
0.0
 10
513.730371
 20
425.376304
 30
0.0
 10
513.771396
 20
425.294389
 30
0.0
  0
LWPOLYLINE
  5
123
100
AcDbEntity
  8
Page_1
 62
7
100
AcDbPolyline
 90
4
 70
1
 10
530.348896
 20
425.260204
 30
0.0
 10
530.348896
 20
417.258239
 30
0.0
 10
513.771426
 20
417.258239
 30
0.0
 10
513.771426
 20
425.260204
 30
0.0
  0
LWPOLYLINE
  5
124
100
AcDbEntity
  8
Page_1
 62
7
100
AcDbPolyline
 90
332
 70
1
 10
271.971194
 20
302.383479
 30
0.0
 10
271.820991
 20
302.465446
 30
0.0
 10
271.739076
 20
302.622466
 30
0.0
 10
271.739076
 20
302.670466
 30
0.0
 10
271.739076
 20
325.242625
 30
0.0
 10
271.739076
 20
325.276750
 30
0.0
 10
271.773276
 20
325.365482
 30
0.0
 10
271.841526
 20
325.351607
 30
0.0
 10
271.855176
 20
325.290183
 30
0.0
 10
271.766414
 20
325.242183
 30
0.0
 10
271.739039
 20
325.242183
 30
0.0
 10
263.450281
 20
325.242183
 30
0.0
 10
263.395531
 20
325.242183
 30
0.0
 10
263.245321
 20
325.330915
 30
0.0
 10
263.163391
 20
325.481095
 30
0.0
 10
263.163391
 20
325.529095
 30
0.0
 10
263.163391
 20
342.673250
 30
0.0
 10
263.163391
 20
342.727625
 30
0.0
 10
263.245321
 20
342.877873
 30
0.0
 10
263.395531
 20
342.959795
 30
0.0
 10
263.450281
 20
342.959795
 30
0.0
 10
271.739039
 20
342.959795
 30
0.0
 10
271.766414
 20
342.959795
 30
0.0
 10
271.855176
 20
342.918695
 30
0.0
 10
271.841526
 20
342.857195
 30
0.0
 10
271.773276
 20
342.843320
 30
0.0
 10
271.739076
 20
342.932045
 30
0.0
 10
271.739076
 20
342.959195
 30
0.0
 10
271.739076
 20
359.536643
 30
0.0
 10
271.739076
 20
359.563793
 30
0.0
 10
271.773276
 20
359.659403
 30
0.0
 10
271.841526
 20
359.639153
 30
0.0
 10
271.855176
 20
359.577728
 30
0.0
 10
271.766414
 20
359.536628
 30
0.0
 10
271.739039
 20
359.536628
 30
0.0
 10
263.450281
 20
359.536628
 30
0.0
 10
263.395531
 20
359.536628
 30
0.0
 10
263.245321
 20
359.618550
 30
0.0
 10
263.163391
 20
359.768805
 30
0.0
 10
263.163391
 20
359.816805
 30
0.0
 10
263.163391
 20
376.967756
 30
0.0
 10
263.163391
 20
377.022730
 30
0.0
 10
263.245321
 20
377.166108
 30
0.0
 10
263.395531
 20
377.254840
 30
0.0
 10
263.450281
 20
377.254840
 30
0.0
 10
271.739039
 20
377.254840
 30
0.0
 10
271.766414
 20
377.254840
 30
0.0
 10
271.855176
 20
377.213740
 30
0.0
 10
271.841526
 20
377.145415
 30
0.0
 10
271.773276
 20
377.131465
 30
0.0
 10
271.739076
 20
377.220198
 30
0.0
 10
271.739076
 20
377.254323
 30
0.0
 10
271.739076
 20
393.824976
 30
0.0
 10
271.739076
 20
393.859101
 30
0.0
 10
271.773276
 20
393.947893
 30
0.0
 10
271.841526
 20
393.933943
 30
0.0
 10
271.855176
 20
393.865693
 30
0.0
 10
271.766414
 20
393.824593
 30
0.0
 10
271.739039
 20
393.824593
 30
0.0
 10
263.450281
 20
393.824593
 30
0.0
 10
263.395531
 20
393.824593
 30
0.0
 10
263.245321
 20
393.906531
 30
0.0
 10
263.163391
 20
394.063551
 30
0.0
 10
263.163391
 20
394.111551
 30
0.0
 10
263.163391
 20
411.255683
 30
0.0
 10
263.163391
 20
411.303683
 30
0.0
 10
263.245321
 20
411.460688
 30
0.0
 10
263.395531
 20
411.542678
 30
0.0
 10
263.450281
 20
411.542678
 30
0.0
 10
271.739039
 20
411.542678
 30
0.0
 10
271.766414
 20
411.542678
 30
0.0
 10
271.855176
 20
411.501578
 30
0.0
 10
271.841526
 20
411.433328
 30
0.0
 10
271.773276
 20
411.419378
 30
0.0
 10
271.739076
 20
411.514981
 30
0.0
 10
271.739076
 20
411.542131
 30
0.0
 10
271.739076
 20
434.114207
 30
0.0
 10
271.739076
 20
434.168582
 30
0.0
 10
271.820991
 20
434.318837
 30
0.0
 10
271.971194
 20
434.400774
 30
0.0
 10
272.019044
 20
434.400774
 30
0.0
 10
557.775563
 20
434.400774
 30
0.0
 10
557.823563
 20
434.400774
 30
0.0
 10
557.980568
 20
434.318837
 30
0.0
 10
558.062536
 20
434.168582
 30
0.0
 10
558.062536
 20
434.114207
 30
0.0
 10
558.062536
 20
411.542131
 30
0.0
 10
558.062536
 20
411.514981
 30
0.0
 10
558.021436
 20
411.419378
 30
0.0
 10
557.953186
 20
411.433328
 30
0.0
 10
557.939311
 20
411.501578
 30
0.0
 10
558.034906
 20
411.542678
 30
0.0
 10
558.062056
 20
411.542678
 30
0.0
 10
566.350784
 20
411.542678
 30
0.0
 10
566.398784
 20
411.542678
 30
0.0
 10
566.548986
 20
411.460688
 30
0.0
 10
566.637779
 20
411.303683
 30
0.0
 10
566.637779
 20
411.255683
 30
0.0
 10
566.637779
 20
394.111551
 30
0.0
 10
566.637779
 20
394.063551
 30
0.0
 10
566.548986
 20
393.906531
 30
0.0
 10
566.398784
 20
393.824593
 30
0.0
 10
566.350784
 20
393.824593
 30
0.0
 10
558.062056
 20
393.824593
 30
0.0
 10
558.034906
 20
393.824593
 30
0.0
 10
557.939311
 20
393.865693
 30
0.0
 10
557.953186
 20
393.933943
 30
0.0
 10
558.021436
 20
393.947893
 30
0.0
 10
558.062536
 20
393.859101
 30
0.0
 10
558.062536
 20
393.824976
 30
0.0
 10
558.062536
 20
377.254323
 30
0.0
 10
558.062536
 20
377.220198
 30
0.0
 10
558.021436
 20
377.131465
 30
0.0
 10
557.953186
 20
377.145415
 30
0.0
 10
557.939311
 20
377.213740
 30
0.0
 10
558.034906
 20
377.254840
 30
0.0
 10
558.062056
 20
377.254840
 30
0.0
 10
566.350784
 20
377.254840
 30
0.0
 10
566.398784
 20
377.254840
 30
0.0
 10
566.548986
 20
377.166108
 30
0.0
 10
566.637779
 20
377.022730
 30
0.0
 10
566.637779
 20
376.967756
 30
0.0
 10
566.637779
 20
359.816805
 30
0.0
 10
566.637779
 20
359.768805
 30
0.0
 10
566.548986
 20
359.618550
 30
0.0
 10
566.398784
 20
359.536628
 30
0.0
 10
566.350784
 20
359.536628
 30
0.0
 10
558.062056
 20
359.536628
 30
0.0
 10
558.034906
 20
359.536628
 30
0.0
 10
557.939311
 20
359.577728
 30
0.0
 10
557.953186
 20
359.639153
 30
0.0
 10
558.021436
 20
359.659403
 30
0.0
 10
558.062536
 20
359.563793
 30
0.0
 10
558.062536
 20
359.536643
 30
0.0
 10
558.062536
 20
342.959195
 30
0.0
 10
558.062536
 20
342.932045
 30
0.0
 10
558.021436
 20
342.843320
 30
0.0
 10
557.953186
 20
342.857195
 30
0.0
 10
557.939311
 20
342.918695
 30
0.0
 10
558.034906
 20
342.959795
 30
0.0
 10
558.062056
 20
342.959795
 30
0.0
 10
566.350784
 20
342.959795
 30
0.0
 10
566.398784
 20
342.959795
 30
0.0
 10
566.548986
 20
342.877873
 30
0.0
 10
566.637779
 20
342.727625
 30
0.0
 10
566.637779
 20
342.673250
 30
0.0
 10
566.637779
 20
325.529095
 30
0.0
 10
566.637779
 20
325.481095
 30
0.0
 10
566.548986
 20
325.330915
 30
0.0
 10
566.398784
 20
325.242183
 30
0.0
 10
566.350784
 20
325.242183
 30
0.0
 10
558.062056
 20
325.242183
 30
0.0
 10
558.034906
 20
325.242183
 30
0.0
 10
557.939311
 20
325.290183
 30
0.0
 10
557.953186
 20
325.351607
 30
0.0
 10
558.021436
 20
325.365482
 30
0.0
 10
558.062536
 20
325.276750
 30
0.0
 10
558.062536
 20
325.242625
 30
0.0
 10
558.062536
 20
302.670466
 30
0.0
 10
558.062536
 20
302.622466
 30
0.0
 10
557.980568
 20
302.465446
 30
0.0
 10
557.823563
 20
302.383479
 30
0.0
 10
557.775563
 20
302.383479
 30
0.0
 10
526.634747
 20
302.383479
 30
0.0
 10
526.600547
 20
302.383479
 30
0.0
 10
526.511777
 20
302.424579
 30
0.0
 10
526.525427
 20
302.492904
 30
0.0
 10
526.586852
 20
302.506779
 30
0.0
 10
526.634702
 20
302.411176
 30
0.0
 10
526.634702
 20
302.384026
 30
0.0
 10
526.634702
 20
294.095306
 30
0.0
 10
526.634702
 20
294.047306
 30
0.0
 10
526.545932
 20
293.897119
 30
0.0
 10
526.388897
 20
293.808326
 30
0.0
 10
526.347872
 20
293.808326
 30
0.0
 10
509.203732
 20
293.808326
 30
0.0
 10
509.148982
 20
293.808326
 30
0.0
 10
508.991947
 20
293.897119
 30
0.0
 10
508.916842
 20
294.047306
 30
0.0
 10
508.916842
 20
294.095306
 30
0.0
 10
508.916842
 20
302.384026
 30
0.0
 10
508.916842
 20
302.411176
 30
0.0
 10
508.951042
 20
302.506779
 30
0.0
 10
509.019292
 20
302.492904
 30
0.0
 10
509.032942
 20
302.424579
 30
0.0
 10
508.937347
 20
302.383479
 30
0.0
 10
508.916797
 20
302.383479
 30
0.0
 10
492.339327
 20
302.383479
 30
0.0
 10
492.305127
 20
302.383479
 30
0.0
 10
492.216372
 20
302.424579
 30
0.0
 10
492.230022
 20
302.492904
 30
0.0
 10
492.298272
 20
302.506779
 30
0.0
 10
492.339297
 20
302.411176
 30
0.0
 10
492.339297
 20
302.384026
 30
0.0
 10
492.339297
 20
294.095306
 30
0.0
 10
492.339297
 20
294.047306
 30
0.0
 10
492.257359
 20
293.897119
 30
0.0
 10
492.100324
 20
293.808326
 30
0.0
 10
492.052474
 20
293.808326
 30
0.0
 10
474.908297
 20
293.808326
 30
0.0
 10
474.860447
 20
293.808326
 30
0.0
 10
474.710252
 20
293.897119
 30
0.0
 10
474.628314
 20
294.047306
 30
0.0
 10
474.628314
 20
294.095306
 30
0.0
 10
474.628314
 20
302.384026
 30
0.0
 10
474.628314
 20
302.411176
 30
0.0
 10
474.669339
 20
302.506779
 30
0.0
 10
474.730764
 20
302.492904
 30
0.0
 10
474.744414
 20
302.424579
 30
0.0
 10
474.648834
 20
302.383479
 30
0.0
 10
474.628359
 20
302.383479
 30
0.0
 10
458.050904
 20
302.383479
 30
0.0
 10
458.023529
 20
302.383479
 30
0.0
 10
457.927942
 20
302.424579
 30
0.0
 10
457.941592
 20
302.492904
 30
0.0
 10
458.009841
 20
302.506779
 30
0.0
 10
458.050866
 20
302.411176
 30
0.0
 10
458.050866
 20
302.384026
 30
0.0
 10
458.050866
 20
294.095306
 30
0.0
 10
458.050866
 20
294.047306
 30
0.0
 10
457.962097
 20
293.897119
 30
0.0
 10
457.811879
 20
293.808326
 30
0.0
 10
457.764029
 20
293.808326
 30
0.0
 10
440.619889
 20
293.808326
 30
0.0
 10
440.565139
 20
293.808326
 30
0.0
 10
440.414929
 20
293.897119
 30
0.0
 10
440.332999
 20
294.047306
 30
0.0
 10
440.332999
 20
294.095306
 30
0.0
 10
440.332999
 20
302.384026
 30
0.0
 10
440.332999
 20
302.411176
 30
0.0
 10
440.367199
 20
302.506779
 30
0.0
 10
440.435449
 20
302.492904
 30
0.0
 10
440.449099
 20
302.424579
 30
0.0
 10
440.360336
 20
302.383479
 30
0.0
 10
440.332961
 20
302.383479
 30
0.0
 10
423.762301
 20
302.383479
 30
0.0
 10
423.728101
 20
302.383479
 30
0.0
 10
423.639339
 20
302.424579
 30
0.0
 10
423.652989
 20
302.492904
 30
0.0
 10
423.721314
 20
302.506779
 30
0.0
 10
423.762339
 20
302.411176
 30
0.0
 10
423.762339
 20
302.384026
 30
0.0
 10
423.762339
 20
294.095306
 30
0.0
 10
423.762339
 20
294.047306
 30
0.0
 10
423.673591
 20
293.897119
 30
0.0
 10
423.523396
 20
293.808326
 30
0.0
 10
423.475546
 20
293.808326
 30
0.0
 10
406.324551
 20
293.808326
 30
0.0
 10
406.276701
 20
293.808326
 30
0.0
 10
406.126506
 20
293.897119
 30
0.0
 10
406.044576
 20
294.047306
 30
0.0
 10
406.044576
 20
294.095306
 30
0.0
 10
406.044576
 20
302.384026
 30
0.0
 10
406.044576
 20
302.411176
 30
0.0
 10
406.078776
 20
302.506779
 30
0.0
 10
406.147026
 20
302.492904
 30
0.0
 10
406.160676
 20
302.424579
 30
0.0
 10
406.065096
 20
302.383479
 30
0.0
 10
406.044621
 20
302.383479
 30
0.0
 10
389.467166
 20
302.383479
 30
0.0
 10
389.432966
 20
302.383479
 30
0.0
 10
389.344196
 20
302.424579
 30
0.0
 10
389.357846
 20
302.492904
 30
0.0
 10
389.419271
 20
302.506779
 30
0.0
 10
389.467121
 20
302.411176
 30
0.0
 10
389.467121
 20
302.384026
 30
0.0
 10
389.467121
 20
294.095306
 30
0.0
 10
389.467121
 20
294.047306
 30
0.0
 10
389.385168
 20
293.897119
 30
0.0
 10
389.228126
 20
293.808326
 30
0.0
 10
389.180276
 20
293.808326
 30
0.0
 10
372.036128
 20
293.808326
 30
0.0
 10
371.988278
 20
293.808326
 30
0.0
 10
371.831251
 20
293.897119
 30
0.0
 10
371.749328
 20
294.047306
 30
0.0
 10
371.749328
 20
294.095306
 30
0.0
 10
371.749328
 20
302.384026
 30
0.0
 10
371.749328
 20
302.411176
 30
0.0
 10
371.790353
 20
302.506779
 30
0.0
 10
371.858603
 20
302.492904
 30
0.0
 10
371.865353
 20
302.424579
 30
0.0
 10
371.776576
 20
302.383479
 30
0.0
 10
371.749201
 20
302.383479
 30
0.0
 10
355.178540
 20
302.383479
 30
0.0
 10
355.144340
 20
302.383479
 30
0.0
 10
355.055578
 20
302.424579
 30
0.0
 10
355.069228
 20
302.492904
 30
0.0
 10
355.130653
 20
302.506779
 30
0.0
 10
355.178503
 20
302.411176
 30
0.0
 10
355.178503
 20
302.384026
 30
0.0
 10
355.178503
 20
294.095306
 30
0.0
 10
355.178503
 20
294.047306
 30
0.0
 10
355.096580
 20
293.897119
 30
0.0
 10
354.939553
 20
293.808326
 30
0.0
 10
354.891703
 20
293.808326
 30
0.0
 10
337.747548
 20
293.808326
 30
0.0
 10
337.692798
 20
293.808326
 30
0.0
 10
337.542580
 20
293.897119
 30
0.0
 10
337.453810
 20
294.047306
 30
0.0
 10
337.453810
 20
294.095306
 30
0.0
 10
337.453810
 20
302.384026
 30
0.0
 10
337.453810
 20
302.411176
 30
0.0
 10
337.501660
 20
302.506779
 30
0.0
 10
337.563085
 20
302.492904
 30
0.0
 10
337.576735
 20
302.424579
 30
0.0
 10
337.487988
 20
302.383479
 30
0.0
 10
337.453788
 20
302.383479
 30
0.0
 10
320.890005
 20
302.383479
 30
0.0
 10
320.855805
 20
302.383479
 30
0.0
 10
320.767057
 20
302.424579
 30
0.0
 10
320.773807
 20
302.492904
 30
0.0
 10
320.848890
 20
302.506779
 30
0.0
 10
320.889915
 20
302.411176
 30
0.0
 10
320.889915
 20
302.384026
 30
0.0
 10
320.889915
 20
294.095306
 30
0.0
 10
320.889915
 20
294.047306
 30
0.0
 10
320.801137
 20
293.897119
 30
0.0
 10
320.650928
 20
293.808326
 30
0.0
 10
320.603078
 20
293.808326
 30
0.0
 10
303.452082
 20
293.808326
 30
0.0
 10
303.404232
 20
293.808326
 30
0.0
 10
303.254030
 20
293.897119
 30
0.0
 10
303.165290
 20
294.047306
 30
0.0
 10
303.165290
 20
294.095306
 30
0.0
 10
303.165290
 20
302.384026
 30
0.0
 10
303.165290
 20
302.411176
 30
0.0
 10
303.206315
 20
302.506779
 30
0.0
 10
303.274565
 20
302.492904
 30
0.0
 10
303.288215
 20
302.424579
 30
0.0
 10
303.192612
 20
302.383479
 30
0.0
 10
303.165237
 20
302.383479
 30
0.0
 10
272.017611
 20
302.383479
 30
0.0
  0
LWPOLYLINE
  5
125
100
AcDbEntity
  8
Page_1
 62
7
100
AcDbPolyline
 90
6
 70
1
 10
81.918120
 20
411.258241
 30
0.0
 10
81.918120
 20
411.231091
 30
0.0
 10
81.877095
 20
411.135473
 30
0.0
 10
81.815670
 20
411.149423
 30
0.0
 10
81.795120
 20
411.217673
 30
0.0
 10
81.890700
 20
411.258773
 30
0.0
  0
LWPOLYLINE
  5
126
100
AcDbEntity
  8
Page_1
 62
7
100
AcDbPolyline
 90
6
 70
1
 10
77.418121
 20
425.260204
 30
0.0
 10
77.390746
 20
425.260204
 30
0.0
 10
77.295173
 20
425.301304
 30
0.0
 10
77.315723
 20
425.369554
 30
0.0
 10
77.377148
 20
425.376304
 30
0.0
 10
77.418173
 20
425.294389
 30
0.0
  0
LWPOLYLINE
  5
127
100
AcDbEntity
  8
Page_1
 62
7
100
AcDbPolyline
 90
6
 70
1
 10
93.995561
 20
425.260204
 30
0.0
 10
93.995561
 20
425.294329
 30
0.0
 10
94.036586
 20
425.376244
 30
0.0
 10
94.098011
 20
425.369494
 30
0.0
 10
94.111661
 20
425.301244
 30
0.0
 10
94.022914
 20
425.260144
 30
0.0
  0
LWPOLYLINE
  5
128
100
AcDbEntity
  8
Page_1
 62
7
100
AcDbPolyline
 90
6
 70
1
 10
93.995561
 20
417.258239
 30
0.0
 10
94.022936
 20
417.258239
 30
0.0
 10
94.111676
 20
417.217139
 30
0.0
 10
94.098026
 20
417.148889
 30
0.0
 10
94.036601
 20
417.134939
 30
0.0
 10
93.995576
 20
417.230557
 30
0.0
  0
LWPOLYLINE
  5
129
100
AcDbEntity
  8
Page_1
 62
7
100
AcDbPolyline
 90
4
 70
1
 10
77.418121
 20
417.258239
 30
0.0
 10
77.418121
 20
425.260204
 30
0.0
 10
93.995561
 20
425.260204
 30
0.0
 10
93.995561
 20
417.258239
 30
0.0
  0
LWPOLYLINE
  5
12a
100
AcDbEntity
  8
Page_1
 62
7
100
AcDbPolyline
 90
6
 70
1
 10
222.587015
 20
425.260204
 30
0.0
 10
222.587015
 20
425.294329
 30
0.0
 10
222.621215
 20
425.376244
 30
0.0
 10
222.689465
 20
425.369494
 30
0.0
 10
222.703115
 20
425.301244
 30
0.0
 10
222.614338
 20
425.260144
 30
0.0
  0
LWPOLYLINE
  5
12b
100
AcDbEntity
  8
Page_1
 62
7
100
AcDbPolyline
 90
6
 70
1
 10
222.587015
 20
417.258239
 30
0.0
 10
222.614390
 20
417.258239
 30
0.0
 10
222.703168
 20
417.217139
 30
0.0
 10
222.689518
 20
417.148889
 30
0.0
 10
222.621268
 20
417.134939
 30
0.0
 10
222.587068
 20
417.230557
 30
0.0
  0
LWPOLYLINE
  5
12c
100
AcDbEntity
  8
Page_1
 62
7
100
AcDbPolyline
 90
6
 70
1
 10
206.016370
 20
417.258239
 30
0.0
 10
206.016370
 20
417.231089
 30
0.0
 10
205.968520
 20
417.135472
 30
0.0
 10
205.900270
 20
417.149422
 30
0.0
 10
205.893520
 20
417.217672
 30
0.0
 10
205.982282
 20
417.258772
 30
0.0
  0
SPLINE
  5
12d
100
AcDbEntity
  8
Page_1
 62
7
100
AcDbSpline
 70
8
 71
3
 72
8
 73
4
 74
0
 40
0
 40
0
 40
0
 40
0
 40
1
 40
1
 40
1
 40
1
 10
176.233203
 20
358.934318
 30
0.0
 10
176.217453
 20
358.925693
 30
0.0
 10
176.210178
 20
358.920968
 30
0.0
 10
176.194128
 20
358.912343
 30
0.0
  0
SPLINE
  5
12e
100
AcDbEntity
  8
Page_1
 62
7
100
AcDbSpline
 70
8
 71
3
 72
8
 73
4
 74
0
 40
0
 40
0
 40
0
 40
0
 40
1
 40
1
 40
1
 40
1
 10
176.194218
 20
358.912298
 30
0.0
 10
176.207118
 20
358.918298
 30
0.0
 10
176.221293
 20
358.925048
 30
0.0
 10
176.234343
 20
358.930223
 30
0.0
  0
LWPOLYLINE
  5
12f
100
AcDbEntity
  8
Page_1
 62
7
100
AcDbPolyline
 90
6
 70
1
 10
206.016370
 20
425.260204
 30
0.0
 10
205.982170
 20
425.260204
 30
0.0
 10
205.893407
 20
425.301304
 30
0.0
 10
205.900157
 20
425.369554
 30
0.0
 10
205.968407
 20
425.376304
 30
0.0
 10
206.016257
 20
425.294389
 30
0.0
  0
SPLINE
  5
130
100
AcDbEntity
  8
Page_1
 62
7
100
AcDbSpline
 70
8
 71
3
 72
8
 73
4
 74
0
 40
0
 40
0
 40
0
 40
0
 40
1
 40
1
 40
1
 40
1
 10
175.765143
 20
354.995709
 30
0.0
 10
175.797543
 20
354.921534
 30
0.0
 10
175.815093
 20
354.868509
 30
0.0
 10
175.852166
 20
354.789707
 30
0.0
  0
SPLINE
  5
131
100
AcDbEntity
  8
Page_1
 62
7
100
AcDbSpline
 70
8
 71
3
 72
8
 73
4
 74
0
 40
0
 40
0
 40
0
 40
0
 40
1
 40
1
 40
1
 40
1
 10
175.852166
 20
354.789707
 30
0.0
 10
175.880591
 20
354.729482
 30
0.0
 10
175.994688
 20
354.564542
 30
0.0
 10
175.966173
 20
354.624684
 30
0.0
  0
SPLINE
  5
132
100
AcDbEntity
  8
Page_1
 62
7
100
AcDbSpline
 70
8
 71
3
 72
8
 73
4
 74
0
 40
0
 40
0
 40
0
 40
0
 40
1
 40
1
 40
1
 40
1
 10
175.966173
 20
354.624684
 30
0.0
 10
175.906023
 20
354.751644
 30
0.0
 10
175.834316
 20
354.873317
 30
0.0
 10
175.765143
 20
354.995709
 30
0.0
  0
LWPOLYLINE
  5
133
100
AcDbEntity
  8
Page_1
 62
7
100
AcDbPolyline
 90
4
 70
1
 10
222.587015
 20
425.260204
 30
0.0
 10
222.587015
 20
417.258239
 30
0.0
 10
206.016370
 20
417.258239
 30
0.0
 10
206.016370
 20
425.260204
 30
0.0
  0
SPLINE
  5
134
100
AcDbEntity
  8
Page_1
 62
7
100
AcDbSpline
 70
8
 71
3
 72
8
 73
4
 74
0
 40
0
 40
0
 40
0
 40
0
 40
1
 40
1
 40
1
 40
1
 10
175.292081
 20
354.806687
 30
0.0
 10
175.224956
 20
354.677424
 30
0.0
 10
175.169231
 20
354.562299
 30
0.0
 10
175.123061
 20
354.464672
 30
0.0
  0
SPLINE
  5
135
100
AcDbEntity
  8
Page_1
 62
7
100
AcDbSpline
 70
8
 71
3
 72
8
 73
4
 74
0
 40
0
 40
0
 40
0
 40
0
 40
1
 40
1
 40
1
 40
1
 10
175.123061
 20
354.464672
 30
0.0
 10
175.126811
 20
354.455447
 30
0.0
 10
175.131761
 20
354.446147
 30
0.0
 10
175.136036
 20
354.436922
 30
0.0
  0
SPLINE
  5
136
100
AcDbEntity
  8
Page_1
 62
7
100
AcDbSpline
 70
8
 71
3
 72
8
 73
4
 74
0
 40
0
 40
0
 40
0
 40
0
 40
1
 40
1
 40
1
 40
1
 10
175.136036
 20
354.436629
 30
0.0
 10
175.195736
 20
354.555879
 30
0.0
 10
175.239761
 20
354.683417
 30
0.0
 10
175.292058
 20
354.806687
 30
0.0
  0
LWPOLYLINE
  5
137
100
AcDbEntity
  8
Page_1
 62
7
100
AcDbPolyline
 90
3
 70
0
 10
176.234223
 20
358.930328
 30
0.0
 10
176.233646
 20
358.936328
 30
0.0
 10
176.233308
 20
358.936216
 30
0.0
  0
SPLINE
  5
138
100
AcDbEntity
  8
Page_1
 62
7
100
AcDbSpline
 70
8
 71
3
 72
8
 73
4
 74
0
 40
0
 40
0
 40
0
 40
0
 40
1
 40
1
 40
1
 40
1
 10
132.678105
 20
577.484857
 30
0.0
 10
132.415890
 20
577.456507
 30
0.0
 10
132.155363
 20
577.419157
 30
0.0
 10
131.895990
 20
577.373819
 30
0.0
  0
LWPOLYLINE
  5
139
100
AcDbEntity
  8
Page_1
 62
7
100
AcDbPolyline
 90
288
 70
1
 10
41.416053
 20
302.383479
 30
0.0
 10
41.368285
 20
302.383479
 30
0.0
 10
41.211247
 20
302.465446
 30
0.0
 10
41.129319
 20
302.622466
 30
0.0
 10
41.129319
 20
302.670466
 30
0.0
 10
41.129319
 20
325.529365
 30
0.0
 10
41.129319
 20
325.577365
 30
0.0
 10
41.211247
 20
325.734430
 30
0.0
 10
41.368285
 20
325.816345
 30
0.0
 10
41.416053
 20
325.816345
 30
0.0
 10
49.704790
 20
325.816345
 30
0.0
 10
49.732113
 20
325.816345
 30
0.0
 10
49.820871
 20
325.775245
 30
0.0
 10
49.807221
 20
325.706995
 30
0.0
 10
49.738941
 20
325.700245
 30
0.0
 10
49.704823
 20
325.788977
 30
0.0
 10
49.704823
 20
325.816127
 30
0.0
 10
49.704823
 20
342.393590
 30
0.0
 10
49.704823
 20
342.420740
 30
0.0
 10
49.738941
 20
342.509465
 30
0.0
 10
49.807221
 20
342.495515
 30
0.0
 10
49.820871
 20
342.434090
 30
0.0
 10
49.732113
 20
342.392990
 30
0.0
 10
49.704790
 20
342.392990
 30
0.0
 10
41.416053
 20
342.392990
 30
0.0
 10
41.368285
 20
342.392990
 30
0.0
 10
41.211247
 20
342.474898
 30
0.0
 10
41.129319
 20
342.625153
 30
0.0
 10
41.129319
 20
342.673153
 30
0.0
 10
41.129319
 20
359.817315
 30
0.0
 10
41.129319
 20
359.872290
 30
0.0
 10
41.211247
 20
360.022485
 30
0.0
 10
41.368285
 20
360.104393
 30
0.0
 10
41.416053
 20
360.104393
 30
0.0
 10
49.704790
 20
360.104393
 30
0.0
 10
49.732113
 20
360.104393
 30
0.0
 10
49.820871
 20
360.070268
 30
0.0
 10
49.807221
 20
360.002018
 30
0.0
 10
49.738941
 20
359.988068
 30
0.0
 10
49.704823
 20
360.076800
 30
0.0
 10
49.704823
 20
360.103950
 30
0.0
 10
49.704823
 20
376.681413
 30
0.0
 10
49.704823
 20
376.708563
 30
0.0
 10
49.738941
 20
376.804181
 30
0.0
 10
49.807221
 20
376.790306
 30
0.0
 10
49.820871
 20
376.722056
 30
0.0
 10
49.732113
 20
376.680956
 30
0.0
 10
49.704790
 20
376.680956
 30
0.0
 10
41.416053
 20
376.680956
 30
0.0
 10
41.368285
 20
376.680956
 30
0.0
 10
41.211247
 20
376.769748
 30
0.0
 10
41.129319
 20
376.919936
 30
0.0
 10
41.129319
 20
376.967936
 30
0.0
 10
41.129319
 20
394.112098
 30
0.0
 10
41.129319
 20
394.160098
 30
0.0
 10
41.211247
 20
394.317103
 30
0.0
 10
41.368285
 20
394.399026
 30
0.0
 10
41.416053
 20
394.399026
 30
0.0
 10
49.704790
 20
394.399026
 30
0.0
 10
49.732113
 20
394.399026
 30
0.0
 10
49.820871
 20
394.357926
 30
0.0
 10
49.807221
 20
394.289676
 30
0.0
 10
49.738941
 20
394.282926
 30
0.0
 10
49.704823
 20
394.371718
 30
0.0
 10
49.704823
 20
394.398868
 30
0.0
 10
49.704823
 20
410.969498
 30
0.0
 10
49.704823
 20
411.003623
 30
0.0
 10
49.738941
 20
411.092401
 30
0.0
 10
49.807221
 20
411.078526
 30
0.0
 10
49.820871
 20
411.017176
 30
0.0
 10
49.732113
 20
410.969176
 30
0.0
 10
49.704790
 20
410.969176
 30
0.0
 10
41.416053
 20
410.969176
 30
0.0
 10
41.368285
 20
410.969176
 30
0.0
 10
41.211247
 20
411.051158
 30
0.0
 10
41.129319
 20
411.208163
 30
0.0
 10
41.129319
 20
411.256163
 30
0.0
 10
41.129319
 20
434.115077
 30
0.0
 10
41.129319
 20
434.169452
 30
0.0
 10
41.211247
 20
434.319707
 30
0.0
 10
41.368285
 20
434.401637
 30
0.0
 10
41.416053
 20
434.401637
 30
0.0
 10
49.991551
 20
434.401637
 30
0.0
 10
250.020395
 20
434.401637
 30
0.0
 10
258.589060
 20
434.401637
 30
0.0
 10
258.636910
 20
434.401637
 30
0.0
 10
258.793945
 20
434.319707
 30
0.0
 10
258.875882
 20
434.169452
 30
0.0
 10
258.875882
 20
434.115077
 30
0.0
 10
258.875882
 20
411.256163
 30
0.0
 10
258.875882
 20
411.208163
 30
0.0
 10
258.793945
 20
411.051158
 30
0.0
 10
258.636910
 20
410.969176
 30
0.0
 10
258.589060
 20
410.969176
 30
0.0
 10
250.300332
 20
410.969176
 30
0.0
 10
250.272957
 20
410.969176
 30
0.0
 10
250.177370
 20
411.017176
 30
0.0
 10
250.197920
 20
411.078526
 30
0.0
 10
250.259345
 20
411.092401
 30
0.0
 10
250.300370
 20
411.003623
 30
0.0
 10
250.300370
 20
410.969498
 30
0.0
 10
250.300370
 20
394.398868
 30
0.0
 10
250.300370
 20
394.371718
 30
0.0
 10
250.259345
 20
394.282926
 30
0.0
 10
250.197920
 20
394.289676
 30
0.0
 10
250.177370
 20
394.357926
 30
0.0
 10
250.272957
 20
394.399026
 30
0.0
 10
250.300332
 20
394.399026
 30
0.0
 10
258.589060
 20
394.399026
 30
0.0
 10
258.636910
 20
394.399026
 30
0.0
 10
258.793945
 20
394.317103
 30
0.0
 10
258.875882
 20
394.160098
 30
0.0
 10
258.875882
 20
394.112098
 30
0.0
 10
258.875882
 20
376.967936
 30
0.0
 10
258.875882
 20
376.919936
 30
0.0
 10
258.793945
 20
376.769748
 30
0.0
 10
258.636910
 20
376.680956
 30
0.0
 10
258.589060
 20
376.680956
 30
0.0
 10
250.300332
 20
376.680956
 30
0.0
 10
250.272957
 20
376.680956
 30
0.0
 10
250.177370
 20
376.722056
 30
0.0
 10
250.197920
 20
376.790306
 30
0.0
 10
250.259345
 20
376.804181
 30
0.0
 10
250.300370
 20
376.708563
 30
0.0
 10
250.300370
 20
376.681413
 30
0.0
 10
250.300370
 20
360.103950
 30
0.0
 10
250.300370
 20
360.076800
 30
0.0
 10
250.259345
 20
359.988068
 30
0.0
 10
250.197920
 20
360.002018
 30
0.0
 10
250.177370
 20
360.070268
 30
0.0
 10
250.272957
 20
360.104393
 30
0.0
 10
250.300332
 20
360.104393
 30
0.0
 10
258.589060
 20
360.104393
 30
0.0
 10
258.636910
 20
360.104393
 30
0.0
 10
258.793945
 20
360.022485
 30
0.0
 10
258.875882
 20
359.872290
 30
0.0
 10
258.875882
 20
359.817315
 30
0.0
 10
258.875882
 20
342.673153
 30
0.0
 10
258.875882
 20
342.625153
 30
0.0
 10
258.793945
 20
342.474898
 30
0.0
 10
258.636910
 20
342.392990
 30
0.0
 10
258.589060
 20
342.392990
 30
0.0
 10
250.300332
 20
342.392990
 30
0.0
 10
250.272957
 20
342.392990
 30
0.0
 10
250.177370
 20
342.434090
 30
0.0
 10
250.197920
 20
342.495515
 30
0.0
 10
250.259345
 20
342.509465
 30
0.0
 10
250.300370
 20
342.420740
 30
0.0
 10
250.300370
 20
342.393590
 30
0.0
 10
250.300370
 20
325.816127
 30
0.0
 10
250.300370
 20
325.788977
 30
0.0
 10
250.259345
 20
325.700245
 30
0.0
 10
250.197920
 20
325.706995
 30
0.0
 10
250.177370
 20
325.775245
 30
0.0
 10
250.272957
 20
325.816345
 30
0.0
 10
250.300332
 20
325.816345
 30
0.0
 10
258.589060
 20
325.816345
 30
0.0
 10
258.636910
 20
325.816345
 30
0.0
 10
258.793945
 20
325.734430
 30
0.0
 10
258.875882
 20
325.577365
 30
0.0
 10
258.875882
 20
325.529365
 30
0.0
 10
258.875882
 20
302.670466
 30
0.0
 10
258.875882
 20
302.622466
 30
0.0
 10
258.793945
 20
302.465446
 30
0.0
 10
258.636910
 20
302.383479
 30
0.0
 10
258.589060
 20
302.383479
 30
0.0
 10
250.020395
 20
302.383479
 30
0.0
 10
227.441441
 20
302.383479
 30
0.0
 10
227.414066
 20
302.383479
 30
0.0
 10
227.325311
 20
302.424579
 30
0.0
 10
227.332061
 20
302.492904
 30
0.0
 10
227.400311
 20
302.506779
 30
0.0
 10
227.441336
 20
302.411176
 30
0.0
 10
227.441336
 20
302.384026
 30
0.0
 10
227.441336
 20
294.095306
 30
0.0
 10
227.441336
 20
294.047306
 30
0.0
 10
227.359406
 20
293.897119
 30
0.0
 10
227.202379
 20
293.808326
 30
0.0
 10
227.154529
 20
293.808326
 30
0.0
 10
210.010381
 20
293.808326
 30
0.0
 10
209.962531
 20
293.808326
 30
0.0
 10
209.812314
 20
293.897119
 30
0.0
 10
209.730384
 20
294.047306
 30
0.0
 10
209.730384
 20
294.095306
 30
0.0
 10
209.730384
 20
302.384026
 30
0.0
 10
209.730384
 20
302.411176
 30
0.0
 10
209.764584
 20
302.506779
 30
0.0
 10
209.832834
 20
302.492904
 30
0.0
 10
209.846484
 20
302.424579
 30
0.0
 10
209.757729
 20
302.383479
 30
0.0
 10
209.730354
 20
302.383479
 30
0.0
 10
193.152898
 20
302.383479
 30
0.0
 10
193.118698
 20
302.383479
 30
0.0
 10
193.029943
 20
302.424579
 30
0.0
 10
193.050493
 20
302.492904
 30
0.0
 10
193.111918
 20
302.506779
 30
0.0
 10
193.152943
 20
302.411176
 30
0.0
 10
193.152943
 20
302.384026
 30
0.0
 10
193.152943
 20
294.095306
 30
0.0
 10
193.152943
 20
294.047306
 30
0.0
 10
193.064166
 20
293.897119
 30
0.0
 10
192.920788
 20
293.808326
 30
0.0
 10
192.872938
 20
293.808326
 30
0.0
 10
175.721958
 20
293.808326
 30
0.0
 10
175.674108
 20
293.808326
 30
0.0
 10
175.517073
 20
293.897119
 30
0.0
 10
175.435166
 20
294.047306
 30
0.0
 10
175.435166
 20
294.095306
 30
0.0
 10
175.435166
 20
302.384026
 30
0.0
 10
175.435166
 20
302.411176
 30
0.0
 10
175.476191
 20
302.506779
 30
0.0
 10
175.544441
 20
302.492904
 30
0.0
 10
175.558091
 20
302.424579
 30
0.0
 10
175.462481
 20
302.383479
 30
0.0
 10
175.435106
 20
302.383479
 30
0.0
 10
158.864453
 20
302.383479
 30
0.0
 10
158.830253
 20
302.383479
 30
0.0
 10
158.741475
 20
302.424579
 30
0.0
 10
158.755125
 20
302.492904
 30
0.0
 10
158.816550
 20
302.506779
 30
0.0
 10
158.864400
 20
302.411176
 30
0.0
 10
158.864400
 20
302.384026
 30
0.0
 10
158.864400
 20
294.095306
 30
0.0
 10
158.864400
 20
294.047306
 30
0.0
 10
158.775660
 20
293.897119
 30
0.0
 10
158.625450
 20
293.808326
 30
0.0
 10
158.577601
 20
293.808326
 30
0.0
 10
141.426620
 20
293.808326
 30
0.0
 10
141.378770
 20
293.808326
 30
0.0
 10
141.228553
 20
293.897119
 30
0.0
 10
141.146600
 20
294.047306
 30
0.0
 10
141.146600
 20
294.095306
 30
0.0
 10
141.146600
 20
302.384026
 30
0.0
 10
141.146600
 20
302.411176
 30
0.0
 10
141.187625
 20
302.506779
 30
0.0
 10
141.255875
 20
302.492904
 30
0.0
 10
141.262625
 20
302.424579
 30
0.0
 10
141.173878
 20
302.383479
 30
0.0
 10
141.146503
 20
302.383479
 30
0.0
 10
124.569055
 20
302.383479
 30
0.0
 10
124.541680
 20
302.383479
 30
0.0
 10
124.452940
 20
302.424579
 30
0.0
 10
124.459690
 20
302.492904
 30
0.0
 10
124.527940
 20
302.506779
 30
0.0
 10
124.568965
 20
302.411176
 30
0.0
 10
124.568965
 20
302.384026
 30
0.0
 10
124.568965
 20
294.095306
 30
0.0
 10
124.568965
 20
294.047306
 30
0.0
 10
124.487013
 20
293.897119
 30
0.0
 10
124.329978
 20
293.808326
 30
0.0
 10
124.282128
 20
293.808326
 30
0.0
 10
107.137957
 20
293.808326
 30
0.0
 10
107.090107
 20
293.808326
 30
0.0
 10
106.939905
 20
293.897119
 30
0.0
 10
106.857998
 20
294.047306
 30
0.0
 10
106.857998
 20
294.095306
 30
0.0
 10
106.857998
 20
302.384026
 30
0.0
 10
106.857998
 20
302.411176
 30
0.0
 10
106.892198
 20
302.506779
 30
0.0
 10
106.960522
 20
302.492904
 30
0.0
 10
106.974172
 20
302.424579
 30
0.0
 10
106.885418
 20
302.383479
 30
0.0
 10
106.858043
 20
302.383479
 30
0.0
 10
90.280557
 20
302.383479
 30
0.0
 10
90.246357
 20
302.383479
 30
0.0
 10
90.157557
 20
302.424579
 30
0.0
 10
90.171207
 20
302.492904
 30
0.0
 10
90.239532
 20
302.506779
 30
0.0
 10
90.280557
 20
302.411176
 30
0.0
 10
90.280557
 20
302.384026
 30
0.0
 10
90.280557
 20
294.095306
 30
0.0
 10
90.280557
 20
294.047306
 30
0.0
 10
90.191817
 20
293.897119
 30
0.0
 10
90.041630
 20
293.808326
 30
0.0
 10
89.993780
 20
293.808326
 30
0.0
 10
72.849626
 20
293.808326
 30
0.0
 10
72.794974
 20
293.808326
 30
0.0
 10
72.644765
 20
293.897119
 30
0.0
 10
72.562805
 20
294.047306
 30
0.0
 10
72.562805
 20
294.095306
 30
0.0
 10
72.562805
 20
302.384026
 30
0.0
 10
72.562805
 20
302.411176
 30
0.0
 10
72.603808
 20
302.506779
 30
0.0
 10
72.672103
 20
302.492904
 30
0.0
 10
72.678928
 20
302.424579
 30
0.0
 10
72.590188
 20
302.383479
 30
0.0
 10
72.562978
 20
302.383479
 30
0.0
 10
49.990874
 20
302.383479
 30
0.0
  0
SPLINE
  5
13a
100
AcDbEntity
  8
Page_1
 62
7
100
AcDbSpline
 70
8
 71
3
 72
8
 73
4
 74
0
 40
0
 40
0
 40
0
 40
0
 40
1
 40
1
 40
1
 40
1
 10
131.895990
 20
577.138837
 30
0.0
 10
132.175005
 20
577.147462
 30
0.0
 10
132.438840
 20
577.268744
 30
0.0
 10
132.678105
 20
577.484857
 30
0.0
  0
LWPOLYLINE
  5
13b
100
AcDbEntity
  8
Page_1
 62
7
100
AcDbPolyline
 90
44
 70
1
 10
73.997476
 20
467.550495
 30
0.0
 10
73.997476
 20
467.270550
 30
0.0
 10
73.826771
 20
466.423913
 30
0.0
 10
73.458079
 20
465.550028
 30
0.0
 10
73.355667
 20
465.386138
 30
0.0
 10
73.253256
 20
465.229126
 30
0.0
 10
72.611447
 20
464.532683
 30
0.0
 10
71.826273
 20
463.993336
 30
0.0
 10
71.655568
 20
463.911346
 30
0.0
 10
71.478089
 20
463.836271
 30
0.0
 10
70.563171
 20
463.590459
 30
0.0
 10
69.614131
 20
463.563309
 30
0.0
 10
69.422959
 20
463.590459
 30
0.0
 10
69.231784
 20
463.624584
 30
0.0
 10
68.330541
 20
463.911316
 30
0.0
 10
67.518056
 20
464.402933
 30
0.0
 10
67.367846
 20
464.525858
 30
0.0
 10
67.224469
 20
464.648716
 30
0.0
 10
66.623635
 20
465.386108
 30
0.0
 10
66.207149
 20
466.239570
 30
0.0
 10
66.152504
 20
466.423883
 30
0.0
 10
66.097911
 20
466.608233
 30
0.0
 10
65.988668
 20
467.557290
 30
0.0
 10
66.097911
 20
468.499522
 30
0.0
 10
66.152504
 20
468.677032
 30
0.0
 10
66.207149
 20
468.861367
 30
0.0
 10
66.623635
 20
469.714829
 30
0.0
 10
67.224469
 20
470.452222
 30
0.0
 10
67.367846
 20
470.575064
 30
0.0
 10
67.518056
 20
470.697997
 30
0.0
 10
68.330541
 20
471.196417
 30
0.0
 10
69.231784
 20
471.483164
 30
0.0
 10
69.422959
 20
471.510314
 30
0.0
 10
69.614131
 20
471.537464
 30
0.0
 10
70.563171
 20
471.510314
 30
0.0
 10
71.478089
 20
471.271319
 30
0.0
 10
71.655568
 20
471.189434
 30
0.0
 10
71.826273
 20
471.107497
 30
0.0
 10
72.611447
 20
470.574877
 30
0.0
 10
73.253256
 20
469.871707
 30
0.0
 10
73.355667
 20
469.714642
 30
0.0
 10
73.458079
 20
469.550812
 30
0.0
 10
73.826771
 20
468.676852
 30
0.0
 10
73.997476
 20
467.837033
 30
0.0
  0
LWPOLYLINE
  5
13c
100
AcDbEntity
  8
Page_1
 62
7
100
AcDbPolyline
 90
2
 70
0
 10
131.895990
 20
577.373819
 30
0.0
 10
131.895990
 20
577.138837
 30
0.0
  0
LWPOLYLINE
  5
13d
100
AcDbEntity
  8
Page_1
 62
7
100
AcDbPolyline
 90
604
 70
1
 10
41.416053
 20
438.690128
 30
0.0
 10
41.368285
 20
438.690128
 30
0.0
 10
41.211247
 20
438.772051
 30
0.0
 10
41.129319
 20
438.929116
 30
0.0
 10
41.129319
 20
438.977116
 30
0.0
 10
41.129319
 20
447.545781
 30
0.0
 10
41.129319
 20
478.980184
 30
0.0
 10
41.129319
 20
479.035159
 30
0.0
 10
41.211247
 20
479.185414
 30
0.0
 10
41.368285
 20
479.267322
 30
0.0
 10
41.416053
 20
479.267322
 30
0.0
 10
49.704790
 20
479.267322
 30
0.0
 10
49.732113
 20
479.267322
 30
0.0
 10
49.820871
 20
479.226222
 30
0.0
 10
49.807221
 20
479.157897
 30
0.0
 10
49.738941
 20
479.151147
 30
0.0
 10
49.704823
 20
479.239887
 30
0.0
 10
49.704823
 20
479.267037
 30
0.0
 10
49.704823
 20
495.844507
 30
0.0
 10
49.704823
 20
495.871657
 30
0.0
 10
49.738941
 20
495.960390
 30
0.0
 10
49.807221
 20
495.953640
 30
0.0
 10
49.820871
 20
495.885390
 30
0.0
 10
49.732113
 20
495.844290
 30
0.0
 10
49.704790
 20
495.844290
 30
0.0
 10
41.416053
 20
495.844290
 30
0.0
 10
41.368285
 20
495.844290
 30
0.0
 10
41.211247
 20
495.926197
 30
0.0
 10
41.129319
 20
496.083262
 30
0.0
 10
41.129319
 20
496.124362
 30
0.0
 10
41.129319
 20
513.275342
 30
0.0
 10
41.129319
 20
513.323342
 30
0.0
 10
41.211247
 20
513.480355
 30
0.0
 10
41.368285
 20
513.562270
 30
0.0
 10
41.416053
 20
513.562270
 30
0.0
 10
49.704790
 20
513.562270
 30
0.0
 10
49.732113
 20
513.562270
 30
0.0
 10
49.820871
 20
513.521170
 30
0.0
 10
49.807221
 20
513.452920
 30
0.0
 10
49.738941
 20
513.446170
 30
0.0
 10
49.704823
 20
513.534955
 30
0.0
 10
49.704823
 20
513.562105
 30
0.0
 10
49.704823
 20
530.132750
 30
0.0
 10
49.704823
 20
530.166875
 30
0.0
 10
49.738941
 20
530.255652
 30
0.0
 10
49.807221
 20
530.241778
 30
0.0
 10
49.820871
 20
530.173528
 30
0.0
 10
49.732113
 20
530.132428
 30
0.0
 10
49.704790
 20
530.132428
 30
0.0
 10
41.416053
 20
530.132428
 30
0.0
 10
41.368285
 20
530.132428
 30
0.0
 10
41.211247
 20
530.221205
 30
0.0
 10
41.129319
 20
530.371415
 30
0.0
 10
41.129319
 20
530.419415
 30
0.0
 10
41.129319
 20
547.563578
 30
0.0
 10
41.129319
 20
547.618478
 30
0.0
 10
41.211247
 20
547.768688
 30
0.0
 10
41.368285
 20
547.850580
 30
0.0
 10
41.416053
 20
547.850580
 30
0.0
 10
49.704790
 20
547.850580
 30
0.0
 10
49.732113
 20
547.850580
 30
0.0
 10
49.820871
 20
547.809480
 30
0.0
 10
49.807221
 20
547.741155
 30
0.0
 10
49.738941
 20
547.727205
 30
0.0
 10
49.704823
 20
547.822823
 30
0.0
 10
49.704823
 20
547.849973
 30
0.0
 10
49.704823
 20
564.420618
 30
0.0
 10
49.704823
 20
564.454743
 30
0.0
 10
49.738941
 20
564.543535
 30
0.0
 10
49.807221
 20
564.529660
 30
0.0
 10
49.820871
 20
564.468235
 30
0.0
 10
49.732113
 20
564.420235
 30
0.0
 10
49.704790
 20
564.420235
 30
0.0
 10
41.416053
 20
564.420235
 30
0.0
 10
41.368285
 20
564.420235
 30
0.0
 10
41.211247
 20
564.509005
 30
0.0
 10
41.129319
 20
564.659208
 30
0.0
 10
41.129319
 20
564.707208
 30
0.0
 10
41.129319
 20
581.851423
 30
0.0
 10
41.129319
 20
581.906398
 30
0.0
 10
41.211247
 20
582.056593
 30
0.0
 10
41.368285
 20
582.138575
 30
0.0
 10
41.416053
 20
582.138575
 30
0.0
 10
49.704790
 20
582.138575
 30
0.0
 10
49.732113
 20
582.138575
 30
0.0
 10
49.820871
 20
582.097475
 30
0.0
 10
49.807221
 20
582.029225
 30
0.0
 10
49.738941
 20
582.022475
 30
0.0
 10
49.704823
 20
582.111253
 30
0.0
 10
49.704823
 20
582.138403
 30
0.0
 10
49.704823
 20
598.715858
 30
0.0
 10
49.704823
 20
598.743008
 30
0.0
 10
49.738941
 20
598.831733
 30
0.0
 10
49.807221
 20
598.824983
 30
0.0
 10
49.820871
 20
598.756733
 30
0.0
 10
49.732113
 20
598.715633
 30
0.0
 10
49.704790
 20
598.715633
 30
0.0
 10
41.416053
 20
598.715633
 30
0.0
 10
41.368285
 20
598.715633
 30
0.0
 10
41.211247
 20
598.797548
 30
0.0
 10
41.129319
 20
598.954613
 30
0.0
 10
41.129319
 20
599.002613
 30
0.0
 10
41.129319
 20
616.146776
 30
0.0
 10
41.129319
 20
616.194776
 30
0.0
 10
41.211247
 20
616.351848
 30
0.0
 10
41.368285
 20
616.433756
 30
0.0
 10
41.416053
 20
616.433756
 30
0.0
 10
49.704790
 20
616.433756
 30
0.0
 10
49.732113
 20
616.433756
 30
0.0
 10
49.820871
 20
616.392656
 30
0.0
 10
49.807221
 20
616.324406
 30
0.0
 10
49.738941
 20
616.310531
 30
0.0
 10
49.704823
 20
616.406066
 30
0.0
 10
49.704823
 20
616.433216
 30
0.0
 10
49.704823
 20
633.003861
 30
0.0
 10
49.704823
 20
633.031011
 30
0.0
 10
49.738941
 20
633.126561
 30
0.0
 10
49.807221
 20
633.112611
 30
0.0
 10
49.820871
 20
633.044361
 30
0.0
 10
49.732113
 20
633.003261
 30
0.0
 10
49.704790
 20
633.003261
 30
0.0
 10
41.416053
 20
633.003261
 30
0.0
 10
41.368285
 20
633.003261
 30
0.0
 10
41.211247
 20
633.092001
 30
0.0
 10
41.129319
 20
633.242256
 30
0.0
 10
41.129319
 20
633.290256
 30
0.0
 10
41.129319
 20
650.434396
 30
0.0
 10
41.129319
 20
650.489371
 30
0.0
 10
41.211247
 20
650.639574
 30
0.0
 10
41.368285
 20
650.721481
 30
0.0
 10
41.416053
 20
650.721481
 30
0.0
 10
49.704790
 20
650.721481
 30
0.0
 10
49.732113
 20
650.721481
 30
0.0
 10
49.820871
 20
650.687356
 30
0.0
 10
49.807221
 20
650.612251
 30
0.0
 10
49.738941
 20
650.605501
 30
0.0
 10
49.704823
 20
650.694279
 30
0.0
 10
49.704823
 20
650.721429
 30
0.0
 10
49.704823
 20
667.298899
 30
0.0
 10
49.704823
 20
667.326049
 30
0.0
 10
49.738941
 20
667.421659
 30
0.0
 10
49.807221
 20
667.401409
 30
0.0
 10
49.820871
 20
667.339984
 30
0.0
 10
49.732113
 20
667.298884
 30
0.0
 10
49.704790
 20
667.298884
 30
0.0
 10
41.416053
 20
667.298884
 30
0.0
 10
41.368285
 20
667.298884
 30
0.0
 10
41.211247
 20
667.380837
 30
0.0
 10
41.129319
 20
667.531039
 30
0.0
 10
41.129319
 20
667.579039
 30
0.0
 10
41.129319
 20
684.723179
 30
0.0
 10
41.129319
 20
684.778154
 30
0.0
 10
41.211247
 20
684.928357
 30
0.0
 10
41.368285
 20
685.010279
 30
0.0
 10
41.416053
 20
685.010279
 30
0.0
 10
49.704790
 20
685.010279
 30
0.0
 10
49.732113
 20
685.010279
 30
0.0
 10
49.820871
 20
684.969179
 30
0.0
 10
49.807221
 20
684.900929
 30
0.0
 10
49.738941
 20
684.894179
 30
0.0
 10
49.704823
 20
684.982964
 30
0.0
 10
49.704823
 20
685.010114
 30
0.0
 10
49.704823
 20
701.580737
 30
0.0
 10
49.704823
 20
701.614862
 30
0.0
 10
49.738941
 20
701.703632
 30
0.0
 10
49.807221
 20
701.696882
 30
0.0
 10
49.820871
 20
701.628632
 30
0.0
 10
49.732113
 20
701.580632
 30
0.0
 10
49.704790
 20
701.580632
 30
0.0
 10
41.416053
 20
701.580632
 30
0.0
 10
41.368285
 20
701.580632
 30
0.0
 10
41.211247
 20
701.669432
 30
0.0
 10
41.129319
 20
701.826444
 30
0.0
 10
41.129319
 20
701.874444
 30
0.0
 10
41.129319
 20
733.301963
 30
0.0
 10
41.129319
 20
741.877446
 30
0.0
 10
41.129319
 20
741.925371
 30
0.0
 10
41.211246
 20
742.082338
 30
0.0
 10
41.368284
 20
742.164246
 30
0.0
 10
41.416052
 20
742.164246
 30
0.0
 10
49.991550
 20
742.164246
 30
0.0
 10
72.850446
 20
742.164246
 30
0.0
 10
72.898273
 20
742.164246
 30
0.0
 10
73.048470
 20
742.082338
 30
0.0
 10
73.137208
 20
741.925326
 30
0.0
 10
73.137208
 20
741.877401
 30
0.0
 10
73.137208
 20
733.588673
 30
0.0
 10
73.137208
 20
733.561523
 30
0.0
 10
73.089381
 20
733.472790
 30
0.0
 10
73.027918
 20
733.486665
 30
0.0
 10
73.014268
 20
733.548165
 30
0.0
 10
73.103013
 20
733.589190
 30
0.0
 10
73.137198
 20
733.589190
 30
0.0
 10
89.707850
 20
733.589190
 30
0.0
 10
89.735225
 20
733.589190
 30
0.0
 10
89.830842
 20
733.548165
 30
0.0
 10
89.817192
 20
733.486665
 30
0.0
 10
89.748942
 20
733.472790
 30
0.0
 10
89.707917
 20
733.561523
 30
0.0
 10
89.707917
 20
733.588598
 30
0.0
 10
89.707917
 20
741.877326
 30
0.0
 10
89.707917
 20
741.925251
 30
0.0
 10
89.789825
 20
742.082263
 30
0.0
 10
89.940065
 20
742.164171
 30
0.0
 10
89.994740
 20
742.164171
 30
0.0
 10
107.138872
 20
742.164171
 30
0.0
 10
107.186722
 20
742.164171
 30
0.0
 10
107.336947
 20
742.082263
 30
0.0
 10
107.425717
 20
741.925251
 30
0.0
 10
107.425717
 20
741.877326
 30
0.0
 10
107.425717
 20
733.588598
 30
0.0
 10
107.425717
 20
733.561448
 30
0.0
 10
107.384692
 20
733.472715
 30
0.0
 10
107.316367
 20
733.486590
 30
0.0
 10
107.302717
 20
733.548090
 30
0.0
 10
107.398290
 20
733.589115
 30
0.0
 10
107.425665
 20
733.589115
 30
0.0
 10
124.003120
 20
733.589115
 30
0.0
 10
124.030495
 20
733.589115
 30
0.0
 10
124.119235
 20
733.548090
 30
0.0
 10
124.105585
 20
733.486590
 30
0.0
 10
124.037335
 20
733.472715
 30
0.0
 10
124.003135
 20
733.561448
 30
0.0
 10
124.003135
 20
733.588598
 30
0.0
 10
124.003135
 20
741.877326
 30
0.0
 10
124.003135
 20
741.925251
 30
0.0
 10
124.085080
 20
742.082263
 30
0.0
 10
124.235275
 20
742.164171
 30
0.0
 10
124.283125
 20
742.164171
 30
0.0
 10
141.427303
 20
742.164171
 30
0.0
 10
141.475153
 20
742.164171
 30
0.0
 10
141.632188
 20
742.082263
 30
0.0
 10
141.720928
 20
741.925251
 30
0.0
 10
141.720928
 20
741.877326
 30
0.0
 10
141.720928
 20
733.588598
 30
0.0
 10
141.720928
 20
733.561448
 30
0.0
 10
141.673078
 20
733.472715
 30
0.0
 10
141.604828
 20
733.486590
 30
0.0
 10
141.598078
 20
733.548090
 30
0.0
 10
141.686833
 20
733.589115
 30
0.0
 10
141.721033
 20
733.589115
 30
0.0
 10
158.291686
 20
733.589115
 30
0.0
 10
158.319061
 20
733.589115
 30
0.0
 10
158.407816
 20
733.548090
 30
0.0
 10
158.401066
 20
733.486590
 30
0.0
 10
158.332741
 20
733.472715
 30
0.0
 10
158.291716
 20
733.561448
 30
0.0
 10
158.291716
 20
733.589273
 30
0.0
 10
158.291716
 20
741.878001
 30
0.0
 10
158.291716
 20
741.925926
 30
0.0
 10
158.373646
 20
742.082938
 30
0.0
 10
158.523856
 20
742.164846
 30
0.0
 10
158.578531
 20
742.164846
 30
0.0
 10
175.722686
 20
742.164846
 30
0.0
 10
175.770536
 20
742.164846
 30
0.0
 10
175.920746
 20
742.082938
 30
0.0
 10
176.009508
 20
741.925926
 30
0.0
 10
176.009508
 20
741.878001
 30
0.0
 10
176.009508
 20
733.589273
 30
0.0
 10
176.009508
 20
733.562123
 30
0.0
 10
175.961658
 20
733.473390
 30
0.0
 10
175.900233
 20
733.487265
 30
0.0
 10
175.886583
 20
733.548765
 30
0.0
 10
175.975353
 20
733.589790
 30
0.0
 10
176.009553
 20
733.589790
 30
0.0
 10
192.580183
 20
733.589790
 30
0.0
 10
192.607558
 20
733.589790
 30
0.0
 10
192.703131
 20
733.548765
 30
0.0
 10
192.689481
 20
733.487265
 30
0.0
 10
192.621231
 20
733.473390
 30
0.0
 10
192.580206
 20
733.562123
 30
0.0
 10
192.580206
 20
733.589273
 30
0.0
 10
192.580206
 20
741.878001
 30
0.0
 10
192.580206
 20
741.925926
 30
0.0
 10
192.668961
 20
742.082938
 30
0.0
 10
192.819163
 20
742.164846
 30
0.0
 10
192.873913
 20
742.164846
 30
0.0
 10
210.011251
 20
742.164846
 30
0.0
 10
210.059101
 20
742.164846
 30
0.0
 10
210.216136
 20
742.082938
 30
0.0
 10
210.298073
 20
741.925926
 30
0.0
 10
210.298073
 20
741.878001
 30
0.0
 10
210.298073
 20
733.589273
 30
0.0
 10
210.298073
 20
733.562123
 30
0.0
 10
210.257049
 20
733.473390
 30
0.0
 10
210.188799
 20
733.487265
 30
0.0
 10
210.175149
 20
733.548765
 30
0.0
 10
210.270744
 20
733.589790
 30
0.0
 10
210.298118
 20
733.589790
 30
0.0
 10
226.875574
 20
733.589790
 30
0.0
 10
226.902949
 20
733.589790
 30
0.0
 10
226.991704
 20
733.548765
 30
0.0
 10
226.978054
 20
733.487265
 30
0.0
 10
226.909804
 20
733.473390
 30
0.0
 10
226.875604
 20
733.562123
 30
0.0
 10
226.875604
 20
733.589273
 30
0.0
 10
226.875604
 20
741.878001
 30
0.0
 10
226.875604
 20
741.925926
 30
0.0
 10
226.957549
 20
742.082938
 30
0.0
 10
227.107751
 20
742.164846
 30
0.0
 10
227.155601
 20
742.164846
 30
0.0
 10
250.021302
 20
742.164846
 30
0.0
 10
258.589967
 20
742.164846
 30
0.0
 10
258.637817
 20
742.164846
 30
0.0
 10
258.794852
 20
742.082938
 30
0.0
 10
258.876775
 20
741.925926
 30
0.0
 10
258.876775
 20
741.878001
 30
0.0
 10
258.876775
 20
733.302518
 30
0.0
 10
258.876775
 20
701.875007
 30
0.0
 10
258.876775
 20
701.827007
 30
0.0
 10
258.794852
 20
701.669987
 30
0.0
 10
258.637817
 20
701.581187
 30
0.0
 10
258.589967
 20
701.581187
 30
0.0
 10
250.301240
 20
701.581187
 30
0.0
 10
250.273865
 20
701.581187
 30
0.0
 10
250.178277
 20
701.629187
 30
0.0
 10
250.198827
 20
701.697437
 30
0.0
 10
250.260252
 20
701.704187
 30
0.0
 10
250.301277
 20
701.615417
 30
0.0
 10
250.301277
 20
701.581292
 30
0.0
 10
250.301277
 20
685.010669
 30
0.0
 10
250.301277
 20
684.983519
 30
0.0
 10
250.260252
 20
684.894734
 30
0.0
 10
250.198827
 20
684.901484
 30
0.0
 10
250.178277
 20
684.969734
 30
0.0
 10
250.273865
 20
685.010834
 30
0.0
 10
250.301240
 20
685.010834
 30
0.0
 10
258.589967
 20
685.010834
 30
0.0
 10
258.637817
 20
685.010834
 30
0.0
 10
258.794852
 20
684.928912
 30
0.0
 10
258.876775
 20
684.778709
 30
0.0
 10
258.876775
 20
684.723734
 30
0.0
 10
258.876775
 20
667.579594
 30
0.0
 10
258.876775
 20
667.531594
 30
0.0
 10
258.794852
 20
667.381392
 30
0.0
 10
258.637817
 20
667.299439
 30
0.0
 10
258.589967
 20
667.299439
 30
0.0
 10
250.301240
 20
667.299439
 30
0.0
 10
250.273865
 20
667.299439
 30
0.0
 10
250.178277
 20
667.340539
 30
0.0
 10
250.198827
 20
667.401964
 30
0.0
 10
250.260252
 20
667.422139
 30
0.0
 10
250.301277
 20
667.326537
 30
0.0
 10
250.301277
 20
667.299387
 30
0.0
 10
250.301277
 20
650.721909
 30
0.0
 10
250.301277
 20
650.694759
 30
0.0
 10
250.260252
 20
650.605981
 30
0.0
 10
250.198827
 20
650.612731
 30
0.0
 10
250.178277
 20
650.687844
 30
0.0
 10
250.273865
 20
650.721969
 30
0.0
 10
250.301240
 20
650.721969
 30
0.0
 10
258.589967
 20
650.721969
 30
0.0
 10
258.637817
 20
650.721969
 30
0.0
 10
258.794852
 20
650.640061
 30
0.0
 10
258.876775
 20
650.489866
 30
0.0
 10
258.876775
 20
650.434891
 30
0.0
 10
258.876775
 20
633.290744
 30
0.0
 10
258.876775
 20
633.242744
 30
0.0
 10
258.794852
 20
633.092489
 30
0.0
 10
258.637817
 20
633.003749
 30
0.0
 10
258.589967
 20
633.003749
 30
0.0
 10
250.301240
 20
633.003749
 30
0.0
 10
250.273865
 20
633.003749
 30
0.0
 10
250.178277
 20
633.044849
 30
0.0
 10
250.198827
 20
633.113099
 30
0.0
 10
250.260252
 20
633.127049
 30
0.0
 10
250.301277
 20
633.031506
 30
0.0
 10
250.301277
 20
633.004356
 30
0.0
 10
250.301277
 20
616.433703
 30
0.0
 10
250.301277
 20
616.406553
 30
0.0
 10
250.260252
 20
616.311003
 30
0.0
 10
250.198827
 20
616.324953
 30
0.0
 10
250.178277
 20
616.393203
 30
0.0
 10
250.273865
 20
616.434303
 30
0.0
 10
250.301240
 20
616.434303
 30
0.0
 10
258.589967
 20
616.434303
 30
0.0
 10
258.637817
 20
616.434303
 30
0.0
 10
258.794852
 20
616.352388
 30
0.0
 10
258.876775
 20
616.195323
 30
0.0
 10
258.876775
 20
616.147323
 30
0.0
 10
258.876775
 20
599.003161
 30
0.0
 10
258.876775
 20
598.955161
 30
0.0
 10
258.794852
 20
598.798096
 30
0.0
 10
258.637817
 20
598.716173
 30
0.0
 10
258.589967
 20
598.716173
 30
0.0
 10
250.301240
 20
598.716173
 30
0.0
 10
250.273865
 20
598.716173
 30
0.0
 10
250.178277
 20
598.757273
 30
0.0
 10
250.198827
 20
598.825523
 30
0.0
 10
250.260252
 20
598.832273
 30
0.0
 10
250.301277
 20
598.743548
 30
0.0
 10
250.301277
 20
598.716398
 30
0.0
 10
250.301277
 20
582.138950
 30
0.0
 10
250.301277
 20
582.111800
 30
0.0
 10
250.260252
 20
582.023015
 30
0.0
 10
250.198827
 20
582.029765
 30
0.0
 10
250.178277
 20
582.098015
 30
0.0
 10
250.273865
 20
582.139115
 30
0.0
 10
250.301240
 20
582.139115
 30
0.0
 10
258.589967
 20
582.139115
 30
0.0
 10
258.637817
 20
582.139115
 30
0.0
 10
258.794852
 20
582.057133
 30
0.0
 10
258.876775
 20
581.906938
 30
0.0
 10
258.876775
 20
581.851963
 30
0.0
 10
258.876775
 20
564.707748
 30
0.0
 10
258.876775
 20
564.659748
 30
0.0
 10
258.794852
 20
564.509545
 30
0.0
 10
258.637817
 20
564.420775
 30
0.0
 10
258.589967
 20
564.420775
 30
0.0
 10
250.301240
 20
564.420775
 30
0.0
 10
250.273865
 20
564.420775
 30
0.0
 10
250.178277
 20
564.468775
 30
0.0
 10
250.198827
 20
564.530125
 30
0.0
 10
250.260252
 20
564.544000
 30
0.0
 10
250.301277
 20
564.455208
 30
0.0
 10
250.301277
 20
564.421083
 30
0.0
 10
250.301277
 20
547.850430
 30
0.0
 10
250.301277
 20
547.823280
 30
0.0
 10
250.260252
 20
547.727663
 30
0.0
 10
250.198827
 20
547.741538
 30
0.0
 10
250.178277
 20
547.809863
 30
0.0
 10
250.273865
 20
547.850963
 30
0.0
 10
250.301240
 20
547.850963
 30
0.0
 10
258.589967
 20
547.850963
 30
0.0
 10
258.637817
 20
547.850963
 30
0.0
 10
258.794852
 20
547.769063
 30
0.0
 10
258.876775
 20
547.618860
 30
0.0
 10
258.876775
 20
547.563885
 30
0.0
 10
258.876775
 20
530.419722
 30
0.0
 10
258.876775
 20
530.371722
 30
0.0
 10
258.794852
 20
530.221505
 30
0.0
 10
258.637817
 20
530.132728
 30
0.0
 10
258.589967
 20
530.132728
 30
0.0
 10
250.301240
 20
530.132728
 30
0.0
 10
250.273865
 20
530.132728
 30
0.0
 10
250.178277
 20
530.173828
 30
0.0
 10
250.198827
 20
530.242078
 30
0.0
 10
250.260252
 20
530.255952
 30
0.0
 10
250.301277
 20
530.167175
 30
0.0
 10
250.301277
 20
530.133050
 30
0.0
 10
250.301277
 20
513.562405
 30
0.0
 10
250.301277
 20
513.535255
 30
0.0
 10
250.260252
 20
513.446470
 30
0.0
 10
250.198827
 20
513.453220
 30
0.0
 10
250.178277
 20
513.521470
 30
0.0
 10
250.273865
 20
513.562570
 30
0.0
 10
250.301240
 20
513.562570
 30
0.0
 10
258.589967
 20
513.562570
 30
0.0
 10
258.637817
 20
513.562570
 30
0.0
 10
258.794852
 20
513.480655
 30
0.0
 10
258.876775
 20
513.323642
 30
0.0
 10
258.876775
 20
513.275642
 30
0.0
 10
258.876775
 20
496.124662
 30
0.0
 10
258.876775
 20
496.083562
 30
0.0
 10
258.794852
 20
495.926497
 30
0.0
 10
258.637817
 20
495.844590
 30
0.0
 10
258.589967
 20
495.844590
 30
0.0
 10
250.301240
 20
495.844590
 30
0.0
 10
250.273865
 20
495.844590
 30
0.0
 10
250.178277
 20
495.885690
 30
0.0
 10
250.198827
 20
495.953940
 30
0.0
 10
250.260252
 20
495.960690
 30
0.0
 10
250.301277
 20
495.871957
 30
0.0
 10
250.301277
 20
495.844807
 30
0.0
 10
250.301277
 20
479.267337
 30
0.0
 10
250.301277
 20
479.240187
 30
0.0
 10
250.260252
 20
479.151447
 30
0.0
 10
250.198827
 20
479.158197
 30
0.0
 10
250.178277
 20
479.226522
 30
0.0
 10
250.273865
 20
479.267622
 30
0.0
 10
250.301240
 20
479.267622
 30
0.0
 10
258.589967
 20
479.267622
 30
0.0
 10
258.637817
 20
479.267622
 30
0.0
 10
258.794852
 20
479.185714
 30
0.0
 10
258.876775
 20
479.035459
 30
0.0
 10
258.876775
 20
478.980484
 30
0.0
 10
258.876775
 20
447.546081
 30
0.0
 10
258.876775
 20
438.977416
 30
0.0
 10
258.876775
 20
438.929416
 30
0.0
 10
258.794852
 20
438.772351
 30
0.0
 10
258.637817
 20
438.690428
 30
0.0
 10
258.589967
 20
438.690428
 30
0.0
 10
250.021302
 20
438.690428
 30
0.0
 10
227.155601
 20
438.690428
 30
0.0
 10
227.107751
 20
438.690428
 30
0.0
 10
226.957549
 20
438.772351
 30
0.0
 10
226.875604
 20
438.929416
 30
0.0
 10
226.875604
 20
438.977416
 30
0.0
 10
226.875604
 20
447.266143
 30
0.0
 10
226.875604
 20
447.293293
 30
0.0
 10
226.909804
 20
447.388903
 30
0.0
 10
226.978054
 20
447.368653
 30
0.0
 10
226.991704
 20
447.307228
 30
0.0
 10
226.902949
 20
447.266128
 30
0.0
 10
226.875574
 20
447.266128
 30
0.0
 10
210.298118
 20
447.266128
 30
0.0
 10
210.270744
 20
447.266128
 30
0.0
 10
210.175149
 20
447.307228
 30
0.0
 10
210.188799
 20
447.368653
 30
0.0
 10
210.257049
 20
447.388903
 30
0.0
 10
210.298073
 20
447.293293
 30
0.0
 10
210.298073
 20
447.266143
 30
0.0
 10
210.298073
 20
438.977416
 30
0.0
 10
210.298073
 20
438.929416
 30
0.0
 10
210.216136
 20
438.772351
 30
0.0
 10
210.059101
 20
438.690428
 30
0.0
 10
210.011251
 20
438.690428
 30
0.0
 10
192.873913
 20
438.690428
 30
0.0
 10
192.819163
 20
438.690428
 30
0.0
 10
192.668961
 20
438.772351
 30
0.0
 10
192.580206
 20
438.929416
 30
0.0
 10
192.580206
 20
438.977416
 30
0.0
 10
192.580206
 20
447.266143
 30
0.0
 10
192.580206
 20
447.293293
 30
0.0
 10
192.621231
 20
447.388903
 30
0.0
 10
192.689481
 20
447.368653
 30
0.0
 10
192.703131
 20
447.307228
 30
0.0
 10
192.607558
 20
447.266128
 30
0.0
 10
192.580183
 20
447.266128
 30
0.0
 10
176.009553
 20
447.266128
 30
0.0
 10
175.975353
 20
447.266128
 30
0.0
 10
175.886583
 20
447.307228
 30
0.0
 10
175.900233
 20
447.368653
 30
0.0
 10
175.961658
 20
447.388903
 30
0.0
 10
176.009508
 20
447.293293
 30
0.0
 10
176.009508
 20
447.266143
 30
0.0
 10
176.009508
 20
438.977416
 30
0.0
 10
176.009508
 20
438.929416
 30
0.0
 10
175.920746
 20
438.772351
 30
0.0
 10
175.770536
 20
438.690428
 30
0.0
 10
175.722686
 20
438.690428
 30
0.0
 10
158.578531
 20
438.690428
 30
0.0
 10
158.523856
 20
438.690428
 30
0.0
 10
158.373646
 20
438.772351
 30
0.0
 10
158.291716
 20
438.929416
 30
0.0
 10
158.291716
 20
438.977416
 30
0.0
 10
158.291716
 20
447.266143
 30
0.0
 10
158.291716
 20
447.293293
 30
0.0
 10
158.332741
 20
447.388903
 30
0.0
 10
158.401066
 20
447.368653
 30
0.0
 10
158.407816
 20
447.307228
 30
0.0
 10
158.319061
 20
447.266128
 30
0.0
 10
158.291686
 20
447.266128
 30
0.0
 10
141.721033
 20
447.266128
 30
0.0
 10
141.686833
 20
447.266128
 30
0.0
 10
141.598078
 20
447.307228
 30
0.0
 10
141.604828
 20
447.368653
 30
0.0
 10
141.673078
 20
447.388903
 30
0.0
 10
141.720928
 20
447.293293
 30
0.0
 10
141.720928
 20
447.266143
 30
0.0
 10
141.720928
 20
438.977416
 30
0.0
 10
141.720928
 20
438.929416
 30
0.0
 10
141.632188
 20
438.772351
 30
0.0
 10
141.475153
 20
438.690428
 30
0.0
 10
141.427303
 20
438.690428
 30
0.0
 10
124.283125
 20
438.690428
 30
0.0
 10
124.235275
 20
438.690428
 30
0.0
 10
124.085080
 20
438.772351
 30
0.0
 10
124.003135
 20
438.929416
 30
0.0
 10
124.003135
 20
438.977416
 30
0.0
 10
124.003135
 20
447.266143
 30
0.0
 10
124.003135
 20
447.293293
 30
0.0
 10
124.037335
 20
447.388903
 30
0.0
 10
124.105585
 20
447.368653
 30
0.0
 10
124.119235
 20
447.307228
 30
0.0
 10
124.030495
 20
447.266128
 30
0.0
 10
124.003120
 20
447.266128
 30
0.0
 10
107.425665
 20
447.266128
 30
0.0
 10
107.398290
 20
447.266128
 30
0.0
 10
107.302717
 20
447.307228
 30
0.0
 10
107.316367
 20
447.368653
 30
0.0
 10
107.384692
 20
447.388903
 30
0.0
 10
107.425717
 20
447.293293
 30
0.0
 10
107.425717
 20
447.266143
 30
0.0
 10
107.425717
 20
438.977416
 30
0.0
 10
107.425717
 20
438.929416
 30
0.0
 10
107.336947
 20
438.772351
 30
0.0
 10
107.186722
 20
438.690428
 30
0.0
 10
107.138872
 20
438.690428
 30
0.0
 10
89.994740
 20
438.690428
 30
0.0
 10
89.940065
 20
438.690428
 30
0.0
 10
89.789825
 20
438.772351
 30
0.0
 10
89.707917
 20
438.929416
 30
0.0
 10
89.707917
 20
438.977416
 30
0.0
 10
89.707917
 20
447.266143
 30
0.0
 10
89.707917
 20
447.293293
 30
0.0
 10
89.748942
 20
447.388903
 30
0.0
 10
89.817192
 20
447.368653
 30
0.0
 10
89.830842
 20
447.307228
 30
0.0
 10
89.735225
 20
447.266128
 30
0.0
 10
89.707850
 20
447.266128
 30
0.0
 10
73.137198
 20
447.266128
 30
0.0
 10
73.103013
 20
447.266128
 30
0.0
 10
73.014268
 20
447.307228
 30
0.0
 10
73.027918
 20
447.368653
 30
0.0
 10
73.089381
 20
447.388903
 30
0.0
 10
73.137208
 20
447.293293
 30
0.0
 10
73.137208
 20
447.266143
 30
0.0
 10
73.137208
 20
438.977416
 30
0.0
 10
73.137208
 20
438.929416
 30
0.0
 10
73.048470
 20
438.772351
 30
0.0
 10
72.898273
 20
438.690428
 30
0.0
 10
72.850446
 20
438.690428
 30
0.0
 10
49.991550
 20
438.690428
 30
0.0
  0
LWPOLYLINE
  5
13e
100
AcDbEntity
  8
Page_1
 62
7
100
AcDbPolyline
 90
42
 70
1
 10
230.295393
 20
471.551496
 30
0.0
 10
231.142030
 20
471.387599
 30
0.0
 10
232.015952
 20
471.025762
 30
0.0
 10
232.179812
 20
470.916517
 30
0.0
 10
232.336847
 20
470.814097
 30
0.0
 10
233.033275
 20
470.172292
 30
0.0
 10
233.572652
 20
469.387132
 30
0.0
 10
233.654582
 20
469.209600
 30
0.0
 10
233.729687
 20
469.038930
 30
0.0
 10
233.975484
 20
468.124005
 30
0.0
 10
234.002859
 20
467.168130
 30
0.0
 10
233.975484
 20
466.983818
 30
0.0
 10
233.948109
 20
466.792643
 30
0.0
 10
233.654507
 20
465.891376
 30
0.0
 10
233.162920
 20
465.078886
 30
0.0
 10
233.040025
 20
464.935523
 30
0.0
 10
232.910297
 20
464.792123
 30
0.0
 10
232.179730
 20
464.191306
 30
0.0
 10
231.319465
 20
463.767991
 30
0.0
 10
231.141948
 20
463.713016
 30
0.0
 10
230.957598
 20
463.658116
 30
0.0
 10
230.015388
 20
463.555696
 30
0.0
 10
229.073171
 20
463.658116
 30
0.0
 10
228.888836
 20
463.713016
 30
0.0
 10
228.704478
 20
463.767991
 30
0.0
 10
227.851039
 20
464.191306
 30
0.0
 10
227.113654
 20
464.792123
 30
0.0
 10
226.867834
 20
465.078886
 30
0.0
 10
226.376261
 20
465.891376
 30
0.0
 10
226.082667
 20
466.792643
 30
0.0
 10
226.055292
 20
466.983818
 30
0.0
 10
226.027917
 20
467.168130
 30
0.0
 10
226.055292
 20
468.124005
 30
0.0
 10
226.294249
 20
469.038930
 30
0.0
 10
226.376186
 20
469.209600
 30
0.0
 10
226.458124
 20
469.387132
 30
0.0
 10
226.990684
 20
470.172292
 30
0.0
 10
227.693936
 20
470.814097
 30
0.0
 10
227.850964
 20
470.916517
 30
0.0
 10
228.014816
 20
471.025762
 30
0.0
 10
228.881936
 20
471.387599
 30
0.0
 10
229.728558
 20
471.551496
 30
0.0
  0
LWPOLYLINE
  5
13f
100
AcDbEntity
  8
Page_1
 62
7
100
AcDbPolyline
 90
43
 70
1
 10
226.014477
 20
713.590724
 30
0.0
 10
226.178337
 20
714.430476
 30
0.0
 10
226.540204
 20
715.304413
 30
0.0
 10
226.649449
 20
715.468296
 30
0.0
 10
226.751854
 20
715.625308
 30
0.0
 10
227.393644
 20
716.328583
 30
0.0
 10
228.178826
 20
716.861143
 30
0.0
 10
228.356358
 20
716.943028
 30
0.0
 10
228.527043
 20
717.024958
 30
0.0
 10
229.441938
 20
717.263930
 30
0.0
 10
230.390973
 20
717.291080
 30
0.0
 10
230.588980
 20
717.256955
 30
0.0
 10
230.773330
 20
717.236105
 30
0.0
 10
231.674575
 20
716.942518
 30
0.0
 10
232.487057
 20
716.450930
 30
0.0
 10
232.637267
 20
716.328073
 30
0.0
 10
232.780645
 20
716.198308
 30
0.0
 10
233.374652
 20
715.467786
 30
0.0
 10
233.797974
 20
714.614301
 30
0.0
 10
233.852649
 20
714.429966
 30
0.0
 10
233.907399
 20
714.245631
 30
0.0
 10
234.016629
 20
713.303384
 30
0.0
 10
233.907399
 20
712.361211
 30
0.0
 10
233.852649
 20
712.170014
 30
0.0
 10
233.797974
 20
711.992482
 30
0.0
 10
233.374652
 20
711.139049
 30
0.0
 10
232.780645
 20
710.401657
 30
0.0
 10
232.637267
 20
710.278784
 30
0.0
 10
232.487057
 20
710.155897
 30
0.0
 10
231.674575
 20
709.664317
 30
0.0
 10
230.773330
 20
709.370677
 30
0.0
 10
230.588980
 20
709.343452
 30
0.0
 10
230.390973
 20
709.316302
 30
0.0
 10
229.441938
 20
709.343452
 30
0.0
 10
228.527043
 20
709.582342
 30
0.0
 10
228.356358
 20
709.664325
 30
0.0
 10
228.178826
 20
709.746232
 30
0.0
 10
227.393644
 20
710.278799
 30
0.0
 10
226.751854
 20
710.982052
 30
0.0
 10
226.649449
 20
711.139057
 30
0.0
 10
226.540204
 20
711.296129
 30
0.0
 10
226.178337
 20
712.176906
 30
0.0
 10
226.014477
 20
713.023544
 30
0.0
  0
LWPOLYLINE
  5
140
100
AcDbEntity
  8
Page_1
 62
7
100
AcDbPolyline
 90
43
 70
1
 10
69.709718
 20
709.302915
 30
0.0
 10
68.863093
 20
709.466797
 30
0.0
 10
67.989162
 20
709.835460
 30
0.0
 10
67.825296
 20
709.937887
 30
0.0
 10
67.668262
 20
710.040307
 30
0.0
 10
66.965014
 20
710.682082
 30
0.0
 10
66.432462
 20
711.467317
 30
0.0
 10
66.357359
 20
711.644842
 30
0.0
 10
66.275429
 20
711.822359
 30
0.0
 10
66.029630
 20
712.737201
 30
0.0
 10
66.002323
 20
713.679434
 30
0.0
 10
66.029630
 20
713.870601
 30
0.0
 10
66.056953
 20
714.061806
 30
0.0
 10
66.350540
 20
714.963036
 30
0.0
 10
66.842131
 20
715.782320
 30
0.0
 10
66.971852
 20
715.925705
 30
0.0
 10
67.094752
 20
716.069098
 30
0.0
 10
67.825306
 20
716.669915
 30
0.0
 10
68.685586
 20
717.086420
 30
0.0
 10
68.869932
 20
717.141395
 30
0.0
 10
69.047448
 20
717.196370
 30
0.0
 10
69.989662
 20
717.305593
 30
0.0
 10
70.931879
 20
717.196370
 30
0.0
 10
71.123044
 20
717.141395
 30
0.0
 10
71.300569
 20
717.086420
 30
0.0
 10
72.154046
 20
716.669915
 30
0.0
 10
72.884587
 20
716.069098
 30
0.0
 10
73.014343
 20
715.925705
 30
0.0
 10
73.137206
 20
715.782320
 30
0.0
 10
73.628812
 20
714.963036
 30
0.0
 10
73.922380
 20
714.061806
 30
0.0
 10
73.949740
 20
713.870601
 30
0.0
 10
73.977100
 20
713.679434
 30
0.0
 10
73.949740
 20
712.737201
 30
0.0
 10
73.710735
 20
711.822359
 30
0.0
 10
73.628833
 20
711.644842
 30
0.0
 10
73.546890
 20
711.467317
 30
0.0
 10
73.014364
 20
710.682082
 30
0.0
 10
72.317934
 20
710.040307
 30
0.0
 10
72.154065
 20
709.937887
 30
0.0
 10
71.997027
 20
709.835460
 30
0.0
 10
71.123059
 20
709.466797
 30
0.0
 10
70.276435
 20
709.302915
 30
0.0
  0
LWPOLYLINE
  5
141
100
AcDbEntity
  8
Page_1
 62
7
100
AcDbPolyline
 90
43
 70
1
 10
291.266048
 20
462.511742
 30
0.0
 10
291.102196
 20
461.665097
 30
0.0
 10
290.726686
 20
460.784342
 30
0.0
 10
290.624258
 20
460.627330
 30
0.0
 10
290.521846
 20
460.470250
 30
0.0
 10
289.880064
 20
459.766990
 30
0.0
 10
289.101699
 20
459.234430
 30
0.0
 10
288.924196
 20
459.152537
 30
0.0
 10
288.746671
 20
459.070607
 30
0.0
 10
287.831777
 20
458.831643
 30
0.0
 10
286.882735
 20
458.804493
 30
0.0
 10
286.691552
 20
458.824668
 30
0.0
 10
286.500385
 20
458.858793
 30
0.0
 10
285.599125
 20
459.152380
 30
0.0
 10
284.786650
 20
459.637157
 30
0.0
 10
284.643258
 20
459.766832
 30
0.0
 10
284.499888
 20
459.889780
 30
0.0
 10
283.899055
 20
460.627172
 30
0.0
 10
283.475740
 20
461.480597
 30
0.0
 10
283.427890
 20
461.658122
 30
0.0
 10
283.366465
 20
461.842457
 30
0.0
 10
283.257228
 20
462.791506
 30
0.0
 10
283.366465
 20
463.733686
 30
0.0
 10
283.427890
 20
463.918014
 30
0.0
 10
283.475740
 20
464.102409
 30
0.0
 10
283.899055
 20
464.955848
 30
0.0
 10
284.499888
 20
465.686371
 30
0.0
 10
284.643258
 20
465.816121
 30
0.0
 10
284.786650
 20
465.939046
 30
0.0
 10
285.599125
 20
466.430580
 30
0.0
 10
286.500385
 20
466.724228
 30
0.0
 10
286.691552
 20
466.751378
 30
0.0
 10
286.882735
 20
466.771553
 30
0.0
 10
287.831777
 20
466.751378
 30
0.0
 10
288.746671
 20
466.512480
 30
0.0
 10
288.924196
 20
466.430490
 30
0.0
 10
289.101699
 20
466.348590
 30
0.0
 10
289.880064
 20
465.816031
 30
0.0
 10
290.521846
 20
465.112763
 30
0.0
 10
290.624258
 20
464.948941
 30
0.0
 10
290.726686
 20
464.791876
 30
0.0
 10
291.102196
 20
463.917924
 30
0.0
 10
291.266048
 20
463.071339
 30
0.0
  0
LWPOLYLINE
  5
142
100
AcDbEntity
  8
Page_1
 62
7
100
AcDbPolyline
 90
20
 70
1
 10
263.395711
 20
438.690128
 30
0.0
 10
263.245494
 20
438.772051
 30
0.0
 10
263.163571
 20
438.929116
 30
0.0
 10
263.163571
 20
438.977116
 30
0.0
 10
263.163571
 20
724.726773
 30
0.0
 10
263.163571
 20
724.781073
 30
0.0
 10
263.245494
 20
724.938138
 30
0.0
 10
263.395711
 20
725.020053
 30
0.0
 10
263.450461
 20
725.020053
 30
0.0
 10
463.479312
 20
725.020053
 30
0.0
 10
463.527162
 20
725.020053
 30
0.0
 10
463.677380
 20
724.938138
 30
0.0
 10
463.766120
 20
724.781073
 30
0.0
 10
463.766120
 20
724.726773
 30
0.0
 10
463.766120
 20
438.977116
 30
0.0
 10
463.766120
 20
438.929116
 30
0.0
 10
463.677380
 20
438.772051
 30
0.0
 10
463.527162
 20
438.690128
 30
0.0
 10
463.479312
 20
438.690128
 30
0.0
 10
263.450461
 20
438.690128
 30
0.0
  0
LWPOLYLINE
  5
143
100
AcDbEntity
  8
Page_1
 62
7
100
AcDbPolyline
 90
42
 70
1
 10
439.944349
 20
466.792643
 30
0.0
 10
440.790971
 20
466.628768
 30
0.0
 10
441.664916
 20
466.260098
 30
0.0
 10
441.828784
 20
466.150860
 30
0.0
 10
441.992643
 20
466.048441
 30
0.0
 10
442.682223
 20
465.406673
 30
0.0
 10
443.221616
 20
464.628301
 30
0.0
 10
443.303538
 20
464.450791
 30
0.0
 10
443.385483
 20
464.280069
 30
0.0
 10
443.624441
 20
463.365166
 30
0.0
 10
443.651816
 20
462.416132
 30
0.0
 10
443.631266
 20
462.218094
 30
0.0
 10
443.597066
 20
462.033767
 30
0.0
 10
443.303463
 20
461.125719
 30
0.0
 10
442.811891
 20
460.313237
 30
0.0
 10
442.688981
 20
460.169845
 30
0.0
 10
442.566093
 20
460.026475
 30
0.0
 10
441.828709
 20
459.425650
 30
0.0
 10
440.975254
 20
459.009137
 30
0.0
 10
440.790896
 20
458.947713
 30
0.0
 10
440.606561
 20
458.899713
 30
0.0
 10
439.664352
 20
458.790475
 30
0.0
 10
438.722134
 20
458.899713
 30
0.0
 10
438.537784
 20
458.947713
 30
0.0
 10
438.353442
 20
459.009137
 30
0.0
 10
437.500002
 20
459.425650
 30
0.0
 10
436.769442
 20
460.026475
 30
0.0
 10
436.516820
 20
460.313237
 30
0.0
 10
436.025225
 20
461.125719
 30
0.0
 10
435.731645
 20
462.033767
 30
0.0
 10
435.704270
 20
462.218094
 30
0.0
 10
435.676895
 20
462.416132
 30
0.0
 10
435.704270
 20
463.365166
 30
0.0
 10
435.943250
 20
464.280069
 30
0.0
 10
436.025180
 20
464.450791
 30
0.0
 10
436.107103
 20
464.628301
 30
0.0
 10
436.639655
 20
465.406673
 30
0.0
 10
437.342915
 20
466.048441
 30
0.0
 10
437.506775
 20
466.150860
 30
0.0
 10
437.663810
 20
466.260098
 30
0.0
 10
438.537732
 20
466.628768
 30
0.0
 10
439.384362
 20
466.792643
 30
0.0
  0
LWPOLYLINE
  5
144
100
AcDbEntity
  8
Page_1
 62
7
100
AcDbPolyline
 90
42
 70
1
 10
435.663448
 20
701.205392
 30
0.0
 10
435.827308
 20
702.052022
 30
0.0
 10
436.189175
 20
702.919104
 30
0.0
 10
436.298413
 20
703.083002
 30
0.0
 10
436.400833
 20
703.246831
 30
0.0
 10
437.042622
 20
703.943244
 30
0.0
 10
437.827797
 20
704.475796
 30
0.0
 10
438.005300
 20
704.557734
 30
0.0
 10
438.176000
 20
704.639671
 30
0.0
 10
439.097742
 20
704.878696
 30
0.0
 10
440.046777
 20
704.905846
 30
0.0
 10
440.237959
 20
704.878696
 30
0.0
 10
440.429119
 20
704.851546
 30
0.0
 10
441.323531
 20
704.564814
 30
0.0
 10
442.136021
 20
704.073211
 30
0.0
 10
442.429608
 20
703.820604
 30
0.0
 10
443.030441
 20
703.083212
 30
0.0
 10
443.453756
 20
702.229749
 30
0.0
 10
443.508506
 20
702.045362
 30
0.0
 10
443.556356
 20
701.861019
 30
0.0
 10
443.665601
 20
700.918847
 30
0.0
 10
443.556356
 20
699.976622
 30
0.0
 10
443.508506
 20
699.792272
 30
0.0
 10
443.453756
 20
699.614777
 30
0.0
 10
443.030441
 20
698.754490
 30
0.0
 10
442.429608
 20
698.017090
 30
0.0
 10
442.286238
 20
697.894180
 30
0.0
 10
442.136021
 20
697.771315
 30
0.0
 10
441.323531
 20
697.279698
 30
0.0
 10
440.429119
 20
696.986148
 30
0.0
 10
440.237959
 20
696.965898
 30
0.0
 10
440.046777
 20
696.931773
 30
0.0
 10
439.097742
 20
696.965898
 30
0.0
 10
438.176000
 20
697.204916
 30
0.0
 10
438.005300
 20
697.279983
 30
0.0
 10
437.827797
 20
697.361921
 30
0.0
 10
437.042622
 20
697.894465
 30
0.0
 10
436.400833
 20
698.597703
 30
0.0
 10
436.298413
 20
698.754768
 30
0.0
 10
436.189175
 20
698.918605
 30
0.0
 10
435.827308
 20
699.792557
 30
0.0
 10
435.663448
 20
700.639187
 30
0.0
  0
LWPOLYLINE
  5
145
100
AcDbEntity
  8
Page_1
 62
7
100
AcDbPolyline
 90
43
 70
1
 10
286.978322
 20
696.917643
 30
0.0
 10
286.131692
 20
697.081473
 30
0.0
 10
285.257755
 20
697.450203
 30
0.0
 10
285.100720
 20
697.552623
 30
0.0
 10
284.943685
 20
697.655043
 30
0.0
 10
284.233600
 20
698.303665
 30
0.0
 10
283.701048
 20
699.082008
 30
0.0
 10
283.619125
 20
699.259518
 30
0.0
 10
283.544020
 20
699.437028
 30
0.0
 10
283.305056
 20
700.351960
 30
0.0
 10
283.270856
 20
701.300957
 30
0.0
 10
283.305056
 20
701.492147
 30
0.0
 10
283.332431
 20
701.683292
 30
0.0
 10
283.619193
 20
702.584567
 30
0.0
 10
284.110788
 20
703.397079
 30
0.0
 10
284.240515
 20
703.540434
 30
0.0
 10
284.363403
 20
703.683819
 30
0.0
 10
285.100795
 20
704.284659
 30
0.0
 10
285.947417
 20
704.707974
 30
0.0
 10
286.131760
 20
704.755974
 30
0.0
 10
286.316110
 20
704.817474
 30
0.0
 10
287.258327
 20
704.926711
 30
0.0
 10
288.207354
 20
704.817474
 30
0.0
 10
288.391704
 20
704.755974
 30
0.0
 10
288.569222
 20
704.707974
 30
0.0
 10
289.422669
 20
704.284659
 30
0.0
 10
290.160054
 20
703.683819
 30
0.0
 10
290.289796
 20
703.540434
 30
0.0
 10
290.412669
 20
703.397079
 30
0.0
 10
290.904263
 20
702.584567
 30
0.0
 10
291.191033
 20
701.683292
 30
0.0
 10
291.218408
 20
701.492147
 30
0.0
 10
291.252608
 20
701.300957
 30
0.0
 10
291.218408
 20
700.351960
 30
0.0
 10
290.979451
 20
699.437028
 30
0.0
 10
290.904338
 20
699.259518
 30
0.0
 10
290.822423
 20
699.082008
 30
0.0
 10
290.283031
 20
698.303665
 30
0.0
 10
289.586611
 20
697.655043
 30
0.0
 10
289.422744
 20
697.552623
 30
0.0
 10
289.265709
 20
697.450203
 30
0.0
 10
288.384947
 20
697.081473
 30
0.0
 10
287.545149
 20
696.917643
 30
0.0
  0
LWPOLYLINE
  5
146
100
AcDbEntity
  8
Page_1
 62
7
100
AcDbPolyline
 90
69
 70
1
 10
285.708370
 20
737.876527
 30
0.0
 10
285.558175
 20
737.965312
 30
0.0
 10
285.476230
 20
738.115507
 30
0.0
 10
285.476230
 20
738.163432
 30
0.0
 10
285.476230
 20
738.211357
 30
0.0
 10
285.544480
 20
738.354734
 30
0.0
 10
285.558130
 20
738.361484
 30
0.0
 10
356.995542
 20
809.805699
 30
0.0
 10
357.009192
 20
809.819582
 30
0.0
 10
357.152592
 20
809.887862
 30
0.0
 10
357.200442
 20
809.887862
 30
0.0
 10
357.248292
 20
809.887862
 30
0.0
 10
357.398487
 20
809.805891
 30
0.0
 10
357.487235
 20
809.655698
 30
0.0
 10
357.487235
 20
809.600813
 30
0.0
 10
357.487235
 20
782.740916
 30
0.0
 10
357.487235
 20
782.713766
 30
0.0
 10
357.446210
 20
782.625036
 30
0.0
 10
357.377960
 20
782.631936
 30
0.0
 10
357.364310
 20
782.700216
 30
0.0
 10
357.453057
 20
782.741234
 30
0.0
 10
357.487257
 20
782.741234
 30
0.0
 10
365.776015
 20
782.741234
 30
0.0
 10
365.817040
 20
782.741234
 30
0.0
 10
365.974075
 20
782.659320
 30
0.0
 10
366.055990
 20
782.509127
 30
0.0
 10
366.055990
 20
782.454249
 30
0.0
 10
366.055990
 20
765.310094
 30
0.0
 10
366.055990
 20
765.262169
 30
0.0
 10
365.974075
 20
765.111922
 30
0.0
 10
365.817040
 20
765.023189
 30
0.0
 10
365.776015
 20
765.023189
 30
0.0
 10
357.487257
 20
765.023189
 30
0.0
 10
357.453057
 20
765.023189
 30
0.0
 10
357.364310
 20
765.064214
 30
0.0
 10
357.377960
 20
765.132464
 30
0.0
 10
357.446210
 20
765.146339
 30
0.0
 10
357.487235
 20
765.050789
 30
0.0
 10
357.487235
 20
765.023639
 30
0.0
 10
357.487235
 20
738.163747
 30
0.0
 10
357.487235
 20
738.115822
 30
0.0
 10
357.398487
 20
737.965627
 30
0.0
 10
357.248292
 20
737.876834
 30
0.0
 10
357.200442
 20
737.876834
 30
0.0
 10
330.340580
 20
737.876834
 30
0.0
 10
330.306380
 20
737.876834
 30
0.0
 10
330.217632
 20
737.917859
 30
0.0
 10
330.231282
 20
737.986109
 30
0.0
 10
330.299532
 20
737.999984
 30
0.0
 10
330.340557
 20
737.904382
 30
0.0
 10
330.340557
 20
737.877232
 30
0.0
 10
330.340557
 20
729.588504
 30
0.0
 10
330.340557
 20
729.540579
 30
0.0
 10
330.258612
 20
729.390384
 30
0.0
 10
330.108395
 20
729.308409
 30
0.0
 10
330.053645
 20
729.308409
 30
0.0
 10
312.909475
 20
729.308409
 30
0.0
 10
312.861625
 20
729.308409
 30
0.0
 10
312.704590
 20
729.390384
 30
0.0
 10
312.622682
 20
729.540579
 30
0.0
 10
312.622682
 20
729.588504
 30
0.0
 10
312.622682
 20
737.877232
 30
0.0
 10
312.622682
 20
737.904382
 30
0.0
 10
312.663707
 20
737.999984
 30
0.0
 10
312.725132
 20
737.986109
 30
0.0
 10
312.745682
 20
737.917859
 30
0.0
 10
312.650072
 20
737.876834
 30
0.0
 10
312.622697
 20
737.876834
 30
0.0
 10
285.762827
 20
737.876834
 30
0.0
  0
LWPOLYLINE
  5
147
100
AcDbEntity
  8
Page_1
 62
7
100
AcDbPolyline
 90
44
 70
1
 10
333.385661
 20
764.545214
 30
0.0
 10
333.569996
 20
764.545214
 30
0.0
 10
334.109381
 20
764.442794
 30
0.0
 10
334.669234
 20
764.203874
 30
0.0
 10
334.778486
 20
764.142374
 30
0.0
 10
334.880899
 20
764.074124
 30
0.0
 10
335.331543
 20
763.664437
 30
0.0
 10
335.672906
 20
763.159207
 30
0.0
 10
335.727656
 20
763.049977
 30
0.0
 10
335.775506
 20
762.933922
 30
0.0
 10
335.932541
 20
762.346717
 30
0.0
 10
335.953091
 20
761.732258
 30
0.0
 10
335.932541
 20
761.609325
 30
0.0
 10
335.911991
 20
761.486460
 30
0.0
 10
335.727633
 20
760.906133
 30
0.0
 10
335.413563
 20
760.387208
 30
0.0
 10
335.331641
 20
760.298423
 30
0.0
 10
335.249696
 20
760.202880
 30
0.0
 10
334.778584
 20
759.813706
 30
0.0
 10
334.225564
 20
759.547396
 30
0.0
 10
334.109486
 20
759.506371
 30
0.0
 10
333.993416
 20
759.472321
 30
0.0
 10
333.385766
 20
759.404071
 30
0.0
 10
332.784927
 20
759.472321
 30
0.0
 10
332.662047
 20
759.506371
 30
0.0
 10
332.545977
 20
759.547396
 30
0.0
 10
331.999737
 20
759.813706
 30
0.0
 10
331.528639
 20
760.202880
 30
0.0
 10
331.446717
 20
760.298423
 30
0.0
 10
331.364780
 20
760.387208
 30
0.0
 10
331.050710
 20
760.906133
 30
0.0
 10
330.859542
 20
761.486460
 30
0.0
 10
330.845892
 20
761.609325
 30
0.0
 10
330.825342
 20
761.732258
 30
0.0
 10
330.838992
 20
762.346717
 30
0.0
 10
330.996027
 20
762.933922
 30
0.0
 10
331.050702
 20
763.049977
 30
0.0
 10
331.098552
 20
763.159207
 30
0.0
 10
331.439945
 20
763.664437
 30
0.0
 10
331.890559
 20
764.074124
 30
0.0
 10
331.999797
 20
764.142374
 30
0.0
 10
332.102217
 20
764.203874
 30
0.0
 10
332.662099
 20
764.442794
 30
0.0
 10
333.208294
 20
764.545214
 30
0.0
  0
LWPOLYLINE
  5
148
100
AcDbEntity
  8
Page_1
 62
7
100
AcDbPolyline
 90
69
 70
1
 10
343.504186
 20
810.454186
 30
0.0
 10
343.661221
 20
810.372211
 30
0.0
 10
343.749991
 20
810.228836
 30
0.0
 10
343.749991
 20
810.173959
 30
0.0
 10
343.749991
 20
810.126019
 30
0.0
 10
343.674879
 20
809.982642
 30
0.0
 10
343.661229
 20
809.968760
 30
0.0
 10
272.223831
 20
738.531359
 30
0.0
 10
272.210181
 20
738.517484
 30
0.0
 10
272.073614
 20
738.449234
 30
0.0
 10
272.018864
 20
738.449234
 30
0.0
 10
271.971014
 20
738.449234
 30
0.0
 10
271.820804
 20
738.531209
 30
0.0
 10
271.738889
 20
738.688222
 30
0.0
 10
271.738889
 20
738.736147
 30
0.0
 10
271.738889
 20
765.595986
 30
0.0
 10
271.738889
 20
765.623136
 30
0.0
 10
271.773089
 20
765.711869
 30
0.0
 10
271.841339
 20
765.705119
 30
0.0
 10
271.854989
 20
765.636869
 30
0.0
 10
271.766234
 20
765.595844
 30
0.0
 10
271.738859
 20
765.595844
 30
0.0
 10
263.450101
 20
765.595844
 30
0.0
 10
263.395351
 20
765.595844
 30
0.0
 10
263.245194
 20
765.677751
 30
0.0
 10
263.163264
 20
765.834824
 30
0.0
 10
263.163264
 20
765.882749
 30
0.0
 10
263.163264
 20
783.026902
 30
0.0
 10
263.163264
 20
783.074842
 30
0.0
 10
263.245194
 20
783.231852
 30
0.0
 10
263.395404
 20
783.313763
 30
0.0
 10
263.450154
 20
783.313763
 30
0.0
 10
271.738911
 20
783.313763
 30
0.0
 10
271.766286
 20
783.313763
 30
0.0
 10
271.855049
 20
783.272761
 30
0.0
 10
271.841399
 20
783.204481
 30
0.0
 10
271.773149
 20
783.197506
 30
0.0
 10
271.738949
 20
783.286295
 30
0.0
 10
271.738949
 20
783.313444
 30
0.0
 10
271.738949
 20
810.173341
 30
0.0
 10
271.738949
 20
810.228226
 30
0.0
 10
271.820864
 20
810.371602
 30
0.0
 10
271.971074
 20
810.453574
 30
0.0
 10
272.018924
 20
810.453574
 30
0.0
 10
298.885611
 20
810.453574
 30
0.0
 10
298.912986
 20
810.453574
 30
0.0
 10
299.001741
 20
810.419517
 30
0.0
 10
298.988091
 20
810.351237
 30
0.0
 10
298.926666
 20
810.337354
 30
0.0
 10
298.885641
 20
810.432959
 30
0.0
 10
298.885641
 20
810.453202
 30
0.0
 10
298.885641
 20
818.748745
 30
0.0
 10
298.885641
 20
818.796685
 30
0.0
 10
298.967571
 20
818.946882
 30
0.0
 10
299.117781
 20
819.028851
 30
0.0
 10
299.172531
 20
819.028851
 30
0.0
 10
316.316694
 20
819.028851
 30
0.0
 10
316.357719
 20
819.028851
 30
0.0
 10
316.514761
 20
818.946882
 30
0.0
 10
316.603501
 20
818.796685
 30
0.0
 10
316.603501
 20
818.748745
 30
0.0
 10
316.603501
 20
810.453202
 30
0.0
 10
316.603501
 20
810.432959
 30
0.0
 10
316.555651
 20
810.337354
 30
0.0
 10
316.494226
 20
810.351237
 30
0.0
 10
316.480576
 20
810.419517
 30
0.0
 10
316.569346
 20
810.453574
 30
0.0
 10
316.603546
 20
810.453574
 30
0.0
 10
343.463416
 20
810.453574
 30
0.0
  0
LWPOLYLINE
  5
149
100
AcDbEntity
  8
Page_1
 62
7
100
AcDbPolyline
 90
44
 70
1
 10
295.833727
 20
783.792311
 30
0.0
 10
295.649400
 20
783.792311
 30
0.0
 10
295.110007
 20
783.894734
 30
0.0
 10
294.550147
 20
784.126841
 30
0.0
 10
294.447735
 20
784.195121
 30
0.0
 10
294.338497
 20
784.263401
 30
0.0
 10
293.894693
 20
784.673083
 30
0.0
 10
293.546490
 20
785.185128
 30
0.0
 10
293.498640
 20
785.287549
 30
0.0
 10
293.443890
 20
785.403602
 30
0.0
 10
293.286855
 20
785.997619
 30
0.0
 10
293.266305
 20
786.605267
 30
0.0
 10
293.286855
 20
786.728196
 30
0.0
 10
293.307405
 20
786.851065
 30
0.0
 10
293.491763
 20
787.431450
 30
0.0
 10
293.805825
 20
787.950309
 30
0.0
 10
293.894588
 20
788.045915
 30
0.0
 10
293.969700
 20
788.141520
 30
0.0
 10
294.440797
 20
788.523819
 30
0.0
 10
294.993825
 20
788.796940
 30
0.0
 10
295.109895
 20
788.830998
 30
0.0
 10
295.232797
 20
788.865055
 30
0.0
 10
295.833622
 20
788.933335
 30
0.0
 10
296.441302
 20
788.865055
 30
0.0
 10
296.557364
 20
788.830998
 30
0.0
 10
296.680252
 20
788.796940
 30
0.0
 10
297.219644
 20
788.523819
 30
0.0
 10
297.697581
 20
788.141520
 30
0.0
 10
297.779496
 20
788.045915
 30
0.0
 10
297.854609
 20
787.950309
 30
0.0
 10
298.168679
 20
787.431450
 30
0.0
 10
298.359846
 20
786.851065
 30
0.0
 10
298.380396
 20
786.728196
 30
0.0
 10
298.394046
 20
786.605267
 30
0.0
 10
298.380396
 20
785.997619
 30
0.0
 10
298.223361
 20
785.403602
 30
0.0
 10
298.175511
 20
785.287549
 30
0.0
 10
298.120761
 20
785.185128
 30
0.0
 10
297.779361
 20
784.673083
 30
0.0
 10
297.328747
 20
784.263401
 30
0.0
 10
297.226334
 20
784.195121
 30
0.0
 10
297.117089
 20
784.126841
 30
0.0
 10
296.557229
 20
783.894734
 30
0.0
 10
296.011012
 20
783.792311
 30
0.0
  0
LWPOLYLINE
  5
14a
100
AcDbEntity
  8
Page_1
 62
7
100
AcDbPolyline
 90
69
 70
1
 10
392.888395
 20
737.876527
 30
0.0
 10
392.745002
 20
737.965312
 30
0.0
 10
392.663080
 20
738.115507
 30
0.0
 10
392.663080
 20
738.163432
 30
0.0
 10
392.663080
 20
738.211357
 30
0.0
 10
392.724505
 20
738.354734
 30
0.0
 10
392.745055
 20
738.361484
 30
0.0
 10
464.182452
 20
809.805699
 30
0.0
 10
464.196102
 20
809.819582
 30
0.0
 10
464.332632
 20
809.887862
 30
0.0
 10
464.387307
 20
809.887862
 30
0.0
 10
464.428332
 20
809.887862
 30
0.0
 10
464.585375
 20
809.805891
 30
0.0
 10
464.674130
 20
809.655698
 30
0.0
 10
464.674130
 20
809.600813
 30
0.0
 10
464.674130
 20
782.740916
 30
0.0
 10
464.674130
 20
782.713766
 30
0.0
 10
464.626280
 20
782.625036
 30
0.0
 10
464.558030
 20
782.631936
 30
0.0
 10
464.551280
 20
782.700216
 30
0.0
 10
464.640057
 20
782.741234
 30
0.0
 10
464.674257
 20
782.741234
 30
0.0
 10
472.956130
 20
782.741234
 30
0.0
 10
473.003980
 20
782.741234
 30
0.0
 10
473.161015
 20
782.659320
 30
0.0
 10
473.242967
 20
782.509127
 30
0.0
 10
473.242967
 20
782.454249
 30
0.0
 10
473.242967
 20
765.310094
 30
0.0
 10
473.242967
 20
765.262169
 30
0.0
 10
473.161015
 20
765.111922
 30
0.0
 10
473.003980
 20
765.023189
 30
0.0
 10
472.956130
 20
765.023189
 30
0.0
 10
464.674257
 20
765.023189
 30
0.0
 10
464.640057
 20
765.023189
 30
0.0
 10
464.551280
 20
765.064214
 30
0.0
 10
464.558030
 20
765.132464
 30
0.0
 10
464.626280
 20
765.146339
 30
0.0
 10
464.674130
 20
765.050789
 30
0.0
 10
464.674130
 20
765.023639
 30
0.0
 10
464.674130
 20
738.163747
 30
0.0
 10
464.674130
 20
738.115822
 30
0.0
 10
464.585375
 20
737.965627
 30
0.0
 10
464.428332
 20
737.876834
 30
0.0
 10
464.387307
 20
737.876834
 30
0.0
 10
437.527445
 20
737.876834
 30
0.0
 10
437.493245
 20
737.876834
 30
0.0
 10
437.404505
 20
737.917859
 30
0.0
 10
437.411255
 20
737.986109
 30
0.0
 10
437.479505
 20
737.999984
 30
0.0
 10
437.527355
 20
737.904382
 30
0.0
 10
437.527355
 20
737.877232
 30
0.0
 10
437.527355
 20
729.588504
 30
0.0
 10
437.527355
 20
729.540579
 30
0.0
 10
437.438600
 20
729.390384
 30
0.0
 10
437.281572
 20
729.308409
 30
0.0
 10
437.233722
 20
729.308409
 30
0.0
 10
420.089545
 20
729.308409
 30
0.0
 10
420.041695
 20
729.308409
 30
0.0
 10
419.891500
 20
729.390384
 30
0.0
 10
419.809547
 20
729.540579
 30
0.0
 10
419.809547
 20
729.588504
 30
0.0
 10
419.809547
 20
737.877232
 30
0.0
 10
419.809547
 20
737.904382
 30
0.0
 10
419.843747
 20
737.999984
 30
0.0
 10
419.911997
 20
737.986109
 30
0.0
 10
419.925647
 20
737.917859
 30
0.0
 10
419.836907
 20
737.876834
 30
0.0
 10
419.809532
 20
737.876834
 30
0.0
 10
392.942860
 20
737.876834
 30
0.0
  0
LWPOLYLINE
  5
14b
100
AcDbEntity
  8
Page_1
 62
7
100
AcDbPolyline
 90
44
 70
1
 10
440.572496
 20
764.545214
 30
0.0
 10
440.750006
 20
764.545214
 30
0.0
 10
441.296224
 20
764.442794
 30
0.0
 10
441.856091
 20
764.203874
 30
0.0
 10
441.965336
 20
764.142374
 30
0.0
 10
442.067748
 20
764.074124
 30
0.0
 10
442.511546
 20
763.664437
 30
0.0
 10
442.859756
 20
763.159207
 30
0.0
 10
442.907606
 20
763.049977
 30
0.0
 10
442.962356
 20
762.933922
 30
0.0
 10
443.119391
 20
762.346717
 30
0.0
 10
443.133041
 20
761.732258
 30
0.0
 10
443.119391
 20
761.609325
 30
0.0
 10
443.098841
 20
761.486460
 30
0.0
 10
442.907673
 20
760.906133
 30
0.0
 10
442.593603
 20
760.387208
 30
0.0
 10
442.511681
 20
760.298423
 30
0.0
 10
442.429743
 20
760.202880
 30
0.0
 10
441.958631
 20
759.813706
 30
0.0
 10
441.419239
 20
759.547396
 30
0.0
 10
441.296359
 20
759.506371
 30
0.0
 10
441.180296
 20
759.472321
 30
0.0
 10
440.572631
 20
759.404071
 30
0.0
 10
439.964974
 20
759.472321
 30
0.0
 10
439.848897
 20
759.506371
 30
0.0
 10
439.732834
 20
759.547396
 30
0.0
 10
439.179799
 20
759.813706
 30
0.0
 10
438.701862
 20
760.202880
 30
0.0
 10
438.626757
 20
760.298423
 30
0.0
 10
438.544827
 20
760.387208
 30
0.0
 10
438.223917
 20
760.906133
 30
0.0
 10
438.039582
 20
761.486460
 30
0.0
 10
438.025932
 20
761.609325
 30
0.0
 10
438.005382
 20
761.732258
 30
0.0
 10
438.025932
 20
762.346717
 30
0.0
 10
438.182960
 20
762.933922
 30
0.0
 10
438.230810
 20
763.049977
 30
0.0
 10
438.285485
 20
763.159207
 30
0.0
 10
438.626869
 20
763.664437
 30
0.0
 10
439.077499
 20
764.074124
 30
0.0
 10
439.179912
 20
764.142374
 30
0.0
 10
439.282324
 20
764.203874
 30
0.0
 10
439.849002
 20
764.442794
 30
0.0
 10
440.388394
 20
764.545214
 30
0.0
  0
LWPOLYLINE
  5
14c
100
AcDbEntity
  8
Page_1
 62
7
100
AcDbPolyline
 90
69
 70
1
 10
450.691044
 20
810.454186
 30
0.0
 10
450.848078
 20
810.372211
 30
0.0
 10
450.929993
 20
810.228836
 30
0.0
 10
450.929993
 20
810.173959
 30
0.0
 10
450.929993
 20
810.126019
 30
0.0
 10
450.854911
 20
809.982642
 30
0.0
 10
450.848161
 20
809.968760
 30
0.0
 10
379.403901
 20
738.531359
 30
0.0
 10
379.390251
 20
738.517484
 30
0.0
 10
379.253684
 20
738.449234
 30
0.0
 10
379.205834
 20
738.449234
 30
0.0
 10
379.151084
 20
738.449234
 30
0.0
 10
379.000881
 20
738.531209
 30
0.0
 10
378.918936
 20
738.688222
 30
0.0
 10
378.918936
 20
738.736147
 30
0.0
 10
378.918936
 20
765.595986
 30
0.0
 10
378.918936
 20
765.623136
 30
0.0
 10
378.959961
 20
765.711869
 30
0.0
 10
379.028211
 20
765.705119
 30
0.0
 10
379.034961
 20
765.636869
 30
0.0
 10
378.946221
 20
765.595844
 30
0.0
 10
378.918846
 20
765.595844
 30
0.0
 10
370.630104
 20
765.595844
 30
0.0
 10
370.582254
 20
765.595844
 30
0.0
 10
370.432051
 20
765.677759
 30
0.0
 10
370.350114
 20
765.834824
 30
0.0
 10
370.350114
 20
765.882749
 30
0.0
 10
370.350114
 20
783.026903
 30
0.0
 10
370.350114
 20
783.074843
 30
0.0
 10
370.432051
 20
783.231853
 30
0.0
 10
370.582254
 20
783.313765
 30
0.0
 10
370.630104
 20
783.313765
 30
0.0
 10
378.918846
 20
783.313765
 30
0.0
 10
378.946221
 20
783.313765
 30
0.0
 10
379.034961
 20
783.272762
 30
0.0
 10
379.028211
 20
783.204482
 30
0.0
 10
378.959961
 20
783.197507
 30
0.0
 10
378.918936
 20
783.286295
 30
0.0
 10
378.918936
 20
783.313265
 30
0.0
 10
378.918936
 20
810.173161
 30
0.0
 10
378.918936
 20
810.228046
 30
0.0
 10
379.000881
 20
810.371422
 30
0.0
 10
379.151084
 20
810.453394
 30
0.0
 10
379.205834
 20
810.453394
 30
0.0
 10
406.065689
 20
810.453394
 30
0.0
 10
406.093064
 20
810.453394
 30
0.0
 10
406.181826
 20
810.419337
 30
0.0
 10
406.168176
 20
810.351057
 30
0.0
 10
406.099926
 20
810.337174
 30
0.0
 10
406.065726
 20
810.432778
 30
0.0
 10
406.065726
 20
810.453021
 30
0.0
 10
406.065726
 20
818.748564
 30
0.0
 10
406.065726
 20
818.796504
 30
0.0
 10
406.147664
 20
818.946702
 30
0.0
 10
406.304698
 20
819.028670
 30
0.0
 10
406.352548
 20
819.028670
 30
0.0
 10
423.496681
 20
819.028670
 30
0.0
 10
423.544531
 20
819.028670
 30
0.0
 10
423.701566
 20
818.946702
 30
0.0
 10
423.783511
 20
818.796504
 30
0.0
 10
423.783511
 20
818.748564
 30
0.0
 10
423.783511
 20
810.453021
 30
0.0
 10
423.783511
 20
810.432778
 30
0.0
 10
423.742486
 20
810.337174
 30
0.0
 10
423.674236
 20
810.351057
 30
0.0
 10
423.660586
 20
810.419337
 30
0.0
 10
423.756181
 20
810.453394
 30
0.0
 10
423.783556
 20
810.453394
 30
0.0
 10
450.643426
 20
810.453394
 30
0.0
  0
LWPOLYLINE
  5
14d
100
AcDbEntity
  8
Page_1
 62
7
100
AcDbPolyline
 90
44
 70
1
 10
403.013752
 20
783.792311
 30
0.0
 10
402.836234
 20
783.792311
 30
0.0
 10
402.290032
 20
783.894734
 30
0.0
 10
401.730150
 20
784.126841
 30
0.0
 10
401.627737
 20
784.195121
 30
0.0
 10
401.518492
 20
784.263401
 30
0.0
 10
401.067870
 20
784.673083
 30
0.0
 10
400.726500
 20
785.185128
 30
0.0
 10
400.678650
 20
785.287549
 30
0.0
 10
400.623975
 20
785.403602
 30
0.0
 10
400.466933
 20
785.997619
 30
0.0
 10
400.453283
 20
786.605267
 30
0.0
 10
400.473758
 20
786.728196
 30
0.0
 10
400.487408
 20
786.851065
 30
0.0
 10
400.678590
 20
787.431450
 30
0.0
 10
400.992660
 20
787.950309
 30
0.0
 10
401.074597
 20
788.045915
 30
0.0
 10
401.149710
 20
788.141520
 30
0.0
 10
401.627632
 20
788.523819
 30
0.0
 10
402.173842
 20
788.796940
 30
0.0
 10
402.289927
 20
788.830998
 30
0.0
 10
402.412807
 20
788.865055
 30
0.0
 10
403.013639
 20
788.933335
 30
0.0
 10
403.621289
 20
788.865055
 30
0.0
 10
403.744199
 20
788.830998
 30
0.0
 10
403.860269
 20
788.796940
 30
0.0
 10
404.406479
 20
788.523819
 30
0.0
 10
404.877584
 20
788.141520
 30
0.0
 10
404.959506
 20
788.045915
 30
0.0
 10
405.041444
 20
787.950309
 30
0.0
 10
405.355514
 20
787.431450
 30
0.0
 10
405.546696
 20
786.851065
 30
0.0
 10
405.567246
 20
786.728196
 30
0.0
 10
405.580896
 20
786.605267
 30
0.0
 10
405.560346
 20
785.997619
 30
0.0
 10
405.410136
 20
785.403602
 30
0.0
 10
405.362286
 20
785.287549
 30
0.0
 10
405.307536
 20
785.185128
 30
0.0
 10
404.959326
 20
784.673083
 30
0.0
 10
404.508712
 20
784.263401
 30
0.0
 10
404.406299
 20
784.195121
 30
0.0
 10
404.297062
 20
784.126841
 30
0.0
 10
403.744012
 20
783.894734
 30
0.0
 10
403.197817
 20
783.792311
 30
0.0
  0
LWPOLYLINE
  5
14e
100
AcDbEntity
  8
Page_1
 62
7
100
AcDbPolyline
 90
4
 70
1
 10
331.555587
 20
704.634309
 30
0.0
 10
399.535628
 20
704.634309
 30
0.0
 10
399.535628
 20
660.840343
 30
0.0
 10
331.555587
 20
660.840343
 30
0.0
  0
LWPOLYLINE
  5
14f
100
AcDbEntity
  8
Page_1
 62
7
100
AcDbPolyline
 90
19
 70
0
 10
356.435705
 20
620.250280
 30
0.0
 10
356.435705
 20
619.997650
 30
0.0
 10
356.463080
 20
619.499245
 30
0.0
 10
356.572325
 20
618.768663
 30
0.0
 10
356.749827
 20
618.072235
 30
0.0
 10
356.995640
 20
617.396306
 30
0.0
 10
357.302877
 20
616.761341
 30
0.0
 10
357.671570
 20
616.160501
 30
0.0
 10
358.088060
 20
615.593794
 30
0.0
 10
358.559164
 20
615.074944
 30
0.0
 10
359.078052
 20
614.603801
 30
0.0
 10
359.644737
 20
614.187364
 30
0.0
 10
360.245591
 20
613.818642
 30
0.0
 10
360.887389
 20
613.511427
 30
0.0
 10
361.556486
 20
613.265637
 30
0.0
 10
362.259731
 20
613.088112
 30
0.0
 10
362.983458
 20
612.972004
 30
0.0
 10
363.481863
 20
612.951754
 30
0.0
 10
363.734485
 20
612.951754
 30
0.0
  0
LWPOLYLINE
  5
150
100
AcDbEntity
  8
Page_1
 62
7
100
AcDbPolyline
 90
19
 70
0
 10
363.734425
 20
627.548993
 30
0.0
 10
363.481803
 20
627.548993
 30
0.0
 10
362.983406
 20
627.521843
 30
0.0
 10
362.259671
 20
627.412613
 30
0.0
 10
361.556434
 20
627.228278
 30
0.0
 10
360.887329
 20
626.982495
 30
0.0
 10
360.245539
 20
626.675213
 30
0.0
 10
359.644684
 20
626.306543
 30
0.0
 10
359.077992
 20
625.890053
 30
0.0
 10
358.559112
 20
625.418948
 30
0.0
 10
358.088007
 20
624.900038
 30
0.0
 10
357.671510
 20
624.340164
 30
0.0
 10
357.302832
 20
623.732514
 30
0.0
 10
356.995580
 20
623.097549
 30
0.0
 10
356.749767
 20
622.421619
 30
0.0
 10
356.572272
 20
621.725192
 30
0.0
 10
356.463020
 20
620.994662
 30
0.0
 10
356.435645
 20
620.496250
 30
0.0
 10
356.435645
 20
620.250460
 30
0.0
  0
LWPOLYLINE
  5
151
100
AcDbEntity
  8
Page_1
 62
7
100
AcDbPolyline
 90
19
 70
0
 10
371.033168
 20
620.250280
 30
0.0
 10
371.033168
 20
620.496070
 30
0.0
 10
371.005793
 20
620.994482
 30
0.0
 10
370.896548
 20
621.725012
 30
0.0
 10
370.712221
 20
622.421439
 30
0.0
 10
370.466409
 20
623.097369
 30
0.0
 10
370.159156
 20
623.732334
 30
0.0
 10
369.797304
 20
624.339984
 30
0.0
 10
369.373989
 20
624.899858
 30
0.0
 10
368.902891
 20
625.418783
 30
0.0
 10
368.383989
 20
625.889873
 30
0.0
 10
367.824137
 20
626.306363
 30
0.0
 10
367.223282
 20
626.675033
 30
0.0
 10
366.581485
 20
626.982315
 30
0.0
 10
365.912387
 20
627.228105
 30
0.0
 10
365.209143
 20
627.412433
 30
0.0
 10
364.485400
 20
627.521663
 30
0.0
 10
363.987018
 20
627.548813
 30
0.0
 10
363.734365
 20
627.548813
 30
0.0
  0
LWPOLYLINE
  5
152
100
AcDbEntity
  8
Page_1
 62
7
100
AcDbPolyline
 90
19
 70
0
 10
363.734425
 20
612.951552
 30
0.0
 10
363.987078
 20
612.951552
 30
0.0
 10
364.485468
 20
612.971727
 30
0.0
 10
365.209203
 20
613.087842
 30
0.0
 10
365.912447
 20
613.265367
 30
0.0
 10
366.581545
 20
613.511164
 30
0.0
 10
367.223342
 20
613.818364
 30
0.0
 10
367.824197
 20
614.187094
 30
0.0
 10
368.384049
 20
614.603524
 30
0.0
 10
368.902951
 20
615.074674
 30
0.0
 10
369.374049
 20
615.593524
 30
0.0
 10
369.797371
 20
616.160231
 30
0.0
 10
370.159216
 20
616.761063
 30
0.0
 10
370.466469
 20
617.396028
 30
0.0
 10
370.712281
 20
618.071958
 30
0.0
 10
370.896608
 20
618.768393
 30
0.0
 10
371.005861
 20
619.498975
 30
0.0
 10
371.033236
 20
619.997387
 30
0.0
 10
371.033236
 20
620.250047
 30
0.0
  0
LWPOLYLINE
  5
153
100
AcDbEntity
  8
Page_1
 62
7
100
AcDbPolyline
 90
4
 70
1
 10
95.722976
 20
360.751680
 30
0.0
 10
127.840104
 20
360.751680
 30
0.0
 10
127.840104
 20
337.401157
 30
0.0
 10
95.722976
 20
337.401157
 30
0.0
  0
LWPOLYLINE
  5
154
100
AcDbEntity
  8
Page_1
 62
7
100
AcDbPolyline
 90
19
 70
0
 10
60.520338
 20
394.994855
 30
0.0
 10
60.520338
 20
394.591993
 30
0.0
 10
60.561281
 20
393.793176
 30
0.0
 10
60.738803
 20
392.632476
 30
0.0
 10
61.025564
 20
391.512726
 30
0.0
 10
61.421561
 20
390.433987
 30
0.0
 10
61.913151
 20
389.416650
 30
0.0
 10
62.493499
 20
388.447170
 30
0.0
 10
63.169434
 20
387.552758
 30
0.0
 10
63.920473
 20
386.719770
 30
0.0
 10
64.753441
 20
385.968728
 30
0.0
 10
65.654691
 20
385.292813
 30
0.0
 10
66.617386
 20
384.705593
 30
0.0
 10
67.641529
 20
384.213998
 30
0.0
 10
68.713461
 20
383.824839
 30
0.0
 10
69.833196
 20
383.531259
 30
0.0
 10
70.993887
 20
383.353756
 30
0.0
 10
71.792721
 20
383.312656
 30
0.0
 10
72.195551
 20
383.312656
 30
0.0
  0
LWPOLYLINE
  5
155
100
AcDbEntity
  8
Page_1
 62
7
100
AcDbPolyline
 90
19
 70
0
 10
72.195571
 20
406.670042
 30
0.0
 10
71.792741
 20
406.670042
 30
0.0
 10
70.993907
 20
406.628942
 30
0.0
 10
69.833216
 20
406.451432
 30
0.0
 10
68.713482
 20
406.164677
 30
0.0
 10
67.641549
 20
405.768685
 30
0.0
 10
66.617406
 20
405.277090
 30
0.0
 10
65.654711
 20
404.696778
 30
0.0
 10
64.753462
 20
404.020833
 30
0.0
 10
63.920493
 20
403.269753
 30
0.0
 10
63.169455
 20
402.436818
 30
0.0
 10
62.493519
 20
401.535536
 30
0.0
 10
61.913172
 20
400.572829
 30
0.0
 10
61.421581
 20
399.548704
 30
0.0
 10
61.025584
 20
398.476767
 30
0.0
 10
60.738824
 20
397.357025
 30
0.0
 10
60.561301
 20
396.196370
 30
0.0
 10
60.520359
 20
395.397523
 30
0.0
 10
60.520359
 20
394.994705
 30
0.0
  0
LWPOLYLINE
  5
156
100
AcDbEntity
  8
Page_1
 62
7
100
AcDbPolyline
 90
19
 70
0
 10
83.877636
 20
394.994855
 30
0.0
 10
83.877636
 20
395.397673
 30
0.0
 10
83.836611
 20
396.196520
 30
0.0
 10
83.659139
 20
397.357182
 30
0.0
 10
83.365514
 20
398.476917
 30
0.0
 10
82.976377
 20
399.548854
 30
0.0
 10
82.484759
 20
400.572986
 30
0.0
 10
81.897577
 20
401.535679
 30
0.0
 10
81.221647
 20
402.436976
 30
0.0
 10
80.470597
 20
403.269903
 30
0.0
 10
79.637633
 20
404.020983
 30
0.0
 10
78.743220
 20
404.696920
 30
0.0
 10
77.773733
 20
405.277240
 30
0.0
 10
76.756396
 20
405.768835
 30
0.0
 10
75.677626
 20
406.164835
 30
0.0
 10
74.557898
 20
406.451582
 30
0.0
 10
73.397200
 20
406.629092
 30
0.0
 10
72.598366
 20
406.670192
 30
0.0
 10
72.195538
 20
406.670192
 30
0.0
  0
LWPOLYLINE
  5
157
100
AcDbEntity
  8
Page_1
 62
7
100
AcDbPolyline
 90
19
 70
0
 10
72.195571
 20
383.312799
 30
0.0
 10
72.598399
 20
383.312799
 30
0.0
 10
73.397233
 20
383.353899
 30
0.0
 10
74.557930
 20
383.531409
 30
0.0
 10
75.677656
 20
383.824989
 30
0.0
 10
76.756426
 20
384.214148
 30
0.0
 10
77.773763
 20
384.705743
 30
0.0
 10
78.743250
 20
385.292948
 30
0.0
 10
79.637670
 20
385.968870
 30
0.0
 10
80.470627
 20
386.719920
 30
0.0
 10
81.221685
 20
387.552908
 30
0.0
 10
81.897615
 20
388.447312
 30
0.0
 10
82.484797
 20
389.416800
 30
0.0
 10
82.976407
 20
390.434129
 30
0.0
 10
83.365552
 20
391.512876
 30
0.0
 10
83.659169
 20
392.632619
 30
0.0
 10
83.836649
 20
393.793326
 30
0.0
 10
83.877674
 20
394.592136
 30
0.0
 10
83.877674
 20
394.995005
 30
0.0
  0
ENDSEC
  0
SECTION
  2
OBJECTS
  0
DICTIONARY
  5
C
330
0
100
AcDbDictionary
  3
ACAD_GROUP
350
D
  3
ACAD_MLINESTYLE
350
17
  0
DICTIONARY
  5
D
330
C
100
AcDbDictionary
  0
DICTIONARY
  5
1A
330
C
100
AcDbDictionary
  0
DICTIONARY
  5
17
330
C
100
AcDbDictionary
  3
STANDARD
350
18
  0
DICTIONARY
  5
19
330
C
100
AcDbDictionary
  0
ENDSEC
  0
EOF
